<svg width="172" height="143" viewBox="0 0 172 143" fill="none" xmlns="http://www.w3.org/2000/svg">
<path d="M96.603 97.2907L115.727 88" stroke="url(#paint0_linear_1439_13184)" stroke-width="13" stroke-linecap="round" stroke-linejoin="round"/>
<g clip-path="url(#clip0_1439_13184)">
<path d="M104.657 73.2595C110.623 74.8154 116.857 75.649 123.019 75.7155C124.491 75.7321 125.837 76.4637 126.09 77.396C126.175 77.6999 126.255 78.0082 126.338 78.3224C126.604 79.319 125.531 80.1598 123.966 80.1413C116.81 80.0795 109.549 79.1102 102.614 77.2905C101.099 76.8919 100.277 75.7957 100.786 74.9066C100.943 74.6295 101.104 74.3581 101.261 74.081C101.743 73.2406 103.231 72.8936 104.651 73.2639L104.657 73.2595Z" fill="#F4F4F4"/>
<path d="M103.353 100.94C107.992 101.03 112.675 101.659 117.177 102.787C118.573 103.138 120.017 102.77 120.483 101.969C120.495 101.96 120.496 101.95 120.498 101.94C121.018 101.042 120.132 99.9578 118.569 99.5685C113.439 98.285 108.104 97.5752 102.82 97.4628C101.215 97.4285 100.073 98.2393 100.347 99.2475C100.356 99.2591 100.355 99.2694 100.358 99.2855C100.605 100.186 101.909 100.912 103.343 100.939L103.353 100.94Z" fill="#F4F4F4"/>
<path d="M108.296 73.1651L108.07 76.1819L119.305 77.6863L119.667 75.7379L115.092 64.8705L108.296 73.1651Z" fill="#DADADA"/>
<path d="M119.667 75.7379L131.467 12.1732L123.731 2.99098e-06L123.541 0.173472L115.092 64.8705L119.667 75.7379Z" fill="#F4F4F4"/>
<path d="M108.296 73.1651L115.092 64.8705L123.541 0.173472L113.129 9.72567L108.296 73.1651Z" fill="#C5C5C6"/>
<path d="M113.096 79.3539C111.941 79.1962 110.785 79.0121 109.631 78.8075C108.342 85.0023 107.943 91.3928 108 97.7653C108.888 97.8512 109.769 97.9415 110.653 98.0581L113.092 79.3481L113.096 79.3539Z" fill="#DB620F"/>
<path d="M113.096 79.3539L110.657 98.0639C111.612 98.1901 112.559 98.3412 113.505 98.5026C115.188 92.3652 116.45 86.0886 116.793 79.769C115.56 79.6531 114.333 79.5225 113.101 79.3598L113.096 79.3539Z" fill="#DB620F"/>
<path d="M102.61 77.2847C104.918 77.8874 107.265 78.3959 109.631 78.8075C110.78 79.0063 111.936 79.2007 113.096 79.3539L113.657 75.0279C110.618 74.6162 107.602 74.0298 104.652 73.2536C103.233 72.8833 101.739 73.2347 101.263 74.0707L100.788 74.8964C100.273 75.7899 101.101 76.8816 102.616 77.2802L102.61 77.2847Z" fill="#FBB040"/>
<path d="M103.353 100.94C105.641 100.986 107.933 101.158 110.214 101.46L110.657 98.0639C109.774 97.9473 108.887 97.8512 108.004 97.7712C106.281 97.6063 104.549 97.503 102.83 97.4641C101.225 97.4299 100.083 98.2406 100.357 99.2489C100.366 99.2605 100.365 99.2708 100.368 99.2869C100.615 100.187 101.92 100.913 103.353 100.94Z" fill="#FBB040"/>
<path d="M123.962 80.1355C125.523 80.1482 126.605 79.3087 126.334 78.3166L126.09 77.396C125.837 76.4637 124.491 75.7321 123.019 75.7155C119.91 75.6811 116.773 75.455 113.661 75.0338L113.101 79.3598C114.328 79.527 115.56 79.6531 116.793 79.769C119.184 79.9854 121.576 80.1183 123.966 80.1413L123.962 80.1355Z" fill="#FBB040"/>
<path d="M117.177 102.787C118.573 103.138 120.017 102.77 120.483 101.969L120.498 101.94C121.018 101.042 120.132 99.9578 118.569 99.5685C116.9 99.1495 115.2 98.7997 113.494 98.5013C112.549 98.3399 111.602 98.1887 110.647 98.0626L110.204 101.458C112.556 101.769 114.886 102.207 117.173 102.781L117.177 102.787Z" fill="#FBB040"/>
</g>
<circle cx="59" cy="94.0033" r="47" fill="#EFE8FE"/>
<circle cx="45" cy="89.0033" r="12" fill="#D9CBFC"/>
<circle cx="83" cy="89.0033" r="12" fill="#D9CBFC"/>
<path d="M27.1932 41.255C27.1448 40.4362 28.0485 39.9106 28.7363 40.3575L42.6235 49.3812C43.2484 49.7872 43.2256 50.7095 42.5814 51.0842L29.6709 58.5931C29.0267 58.9678 28.2138 58.5315 28.1698 57.7877L27.1932 41.255Z" fill="#9168F5"/>
<path fill-rule="evenodd" clip-rule="evenodd" d="M68.0381 88.9982C67.5221 88.9982 67.0875 88.6056 67.0688 88.0899C67.0617 87.895 67.0581 87.6983 67.0581 87.5C67.0581 82.8056 69.0728 79 71.5581 79C74.0434 79 76.0581 82.8056 76.0581 87.5C76.0581 87.6983 76.0545 87.895 76.0474 88.0899C76.0287 88.6056 75.5941 88.9982 75.0782 88.9982H68.0381Z" fill="#1A1B1E"/>
<path fill-rule="evenodd" clip-rule="evenodd" d="M52.98 88.9982C52.464 88.9982 52.0294 88.6056 52.0107 88.0899C52.0036 87.895 52 87.6983 52 87.5C52 82.8056 54.0147 79 56.5 79C58.9853 79 61 82.8056 61 87.5C61 87.6983 60.9964 87.895 60.9893 88.0899C60.9706 88.6056 60.536 88.9982 60.02 88.9982H52.98Z" fill="#1A1B1E"/>
<g clip-path="url(#clip1_1439_13184)">
<path d="M22 82H0V113.453C0 113.453 0.12669 133.479 22 143V82Z" fill="#FBB040"/>
<path d="M22 82H44V113.453C44 113.453 43.8733 133.479 22 143V82Z" fill="#FBB040"/>
<path d="M22.0001 86.9985H3.98804V112.752C3.98804 112.752 4.09269 129.154 22.0001 136.945V86.9985Z" fill="#DB620F"/>
<path d="M22 86.9985H40.012V112.752C40.012 112.752 39.9074 129.154 22 136.945V86.9985Z" fill="#DB620F"/>
<path d="M19.3892 135.675C20.2154 136.118 21.0802 136.545 21.9946 136.945C22.953 136.529 23.8509 136.08 24.7101 135.62V86.9985H19.3892V135.675Z" fill="#FBB040"/>
<path d="M40.0121 101.605H3.98804V106.111H40.0121V101.605Z" fill="#FBB040"/>
<path d="M20.8818 84.6881C20.8818 85.3286 21.4051 85.8542 22.0551 85.8542C22.7051 85.8542 23.2284 85.3341 23.2284 84.6881C23.2284 84.0421 22.7051 83.522 22.0551 83.522C21.4051 83.522 20.8818 84.0421 20.8818 84.6881Z" fill="#F4F4F4"/>
<path d="M10.7686 84.6881C10.7686 85.3286 11.2918 85.8542 11.9418 85.8542C12.5918 85.8542 13.1151 85.3341 13.1151 84.6881C13.1151 84.0421 12.5918 83.522 11.9418 83.522C11.2918 83.522 10.7686 84.0421 10.7686 84.6881Z" fill="#F4F4F4"/>
<path d="M0.660889 84.6881C0.660889 85.3286 1.18417 85.8542 1.83415 85.8542C2.48412 85.8542 3.00741 85.3341 3.00741 84.6881C3.00741 84.0421 2.48412 83.522 1.83415 83.522C1.18417 83.522 0.660889 84.0421 0.660889 84.6881Z" fill="#F4F4F4"/>
<path d="M0.660889 95.2654C0.660889 95.9114 1.18417 96.4315 1.83415 96.4315C2.48412 96.4315 3.00741 95.9114 3.00741 95.2654C3.00741 94.6194 2.48412 94.0993 1.83415 94.0993C1.18417 94.0993 0.660889 94.6194 0.660889 95.2654Z" fill="#F4F4F4"/>
<path d="M0.660889 105.843C0.660889 106.483 1.18417 107.009 1.83415 107.009C2.48412 107.009 3.00741 106.489 3.00741 105.843C3.00741 105.197 2.48412 104.677 1.83415 104.677C1.18417 104.677 0.660889 105.197 0.660889 105.843Z" fill="#F4F4F4"/>
<path d="M1.1897 116.42C1.1897 117.06 1.71298 117.586 2.36296 117.586C3.01293 117.586 3.53622 117.066 3.53622 116.42C3.53622 115.774 3.01293 115.254 2.36296 115.254C1.71298 115.254 1.1897 115.774 1.1897 116.42Z" fill="#F4F4F4"/>
<path d="M5.44775 126.997C5.44775 127.638 5.97104 128.163 6.62101 128.163C7.27099 128.163 7.79427 127.643 7.79427 126.997C7.79427 126.351 7.27099 125.831 6.62101 125.831C5.97104 125.831 5.44775 126.351 5.44775 126.997Z" fill="#F4F4F4"/>
<path d="M12.366 134.93C12.366 135.571 12.8893 136.096 13.5392 136.096C14.1892 136.096 14.7125 135.576 14.7125 134.93C14.7125 134.284 14.1892 133.764 13.5392 133.764C12.8893 133.764 12.366 134.284 12.366 134.93Z" fill="#F4F4F4"/>
<path d="M20.8818 139.89C20.8818 140.531 21.4051 141.056 22.0551 141.056C22.7051 141.056 23.2284 140.536 23.2284 139.89C23.2284 139.244 22.7051 138.724 22.0551 138.724C21.4051 138.724 20.8818 139.244 20.8818 139.89Z" fill="#F4F4F4"/>
<path d="M33.1156 84.6881C33.1156 85.3286 32.5923 85.8542 31.9423 85.8542C31.2923 85.8542 30.769 85.3341 30.769 84.6881C30.769 84.0421 31.2923 83.522 31.9423 83.522C32.5923 83.522 33.1156 84.0421 33.1156 84.6881Z" fill="#F4F4F4"/>
<path d="M43.2288 84.6881C43.2288 85.3286 42.7056 85.8542 42.0556 85.8542C41.4056 85.8542 40.8823 85.3341 40.8823 84.6881C40.8823 84.0421 41.4056 83.522 42.0556 83.522C42.7056 83.522 43.2288 84.0421 43.2288 84.6881Z" fill="#F4F4F4"/>
<path d="M43.2288 95.2654C43.2288 95.9114 42.7056 96.4315 42.0556 96.4315C41.4056 96.4315 40.8823 95.9114 40.8823 95.2654C40.8823 94.6194 41.4056 94.0993 42.0556 94.0993C42.7056 94.0993 43.2288 94.6194 43.2288 95.2654Z" fill="#F4F4F4"/>
<path d="M43.2288 105.843C43.2288 106.483 42.7056 107.009 42.0556 107.009C41.4056 107.009 40.8823 106.489 40.8823 105.843C40.8823 105.197 41.4056 104.677 42.0556 104.677C42.7056 104.677 43.2288 105.197 43.2288 105.843Z" fill="#F4F4F4"/>
<path d="M42.6947 116.42C42.6947 117.06 42.1714 117.586 41.5214 117.586C40.8714 117.586 40.3481 117.066 40.3481 116.42C40.3481 115.774 40.8714 115.254 41.5214 115.254C42.1714 115.254 42.6947 115.774 42.6947 116.42Z" fill="#F4F4F4"/>
<path d="M38.4422 126.997C38.4422 127.638 37.9189 128.163 37.269 128.163C36.619 128.163 36.0957 127.643 36.0957 126.997C36.0957 126.351 36.619 125.831 37.269 125.831C37.9189 125.831 38.4422 126.351 38.4422 126.997Z" fill="#F4F4F4"/>
<path d="M31.5238 134.93C31.5238 135.571 31.0005 136.096 30.3505 136.096C29.7005 136.096 29.1772 135.576 29.1772 134.93C29.1772 134.284 29.7005 133.764 30.3505 133.764C31.0005 133.764 31.5238 134.284 31.5238 134.93Z" fill="#F4F4F4"/>
</g>
<defs>
<linearGradient id="paint0_linear_1439_13184" x1="95.6049" y1="97.8885" x2="121.721" y2="84.8608" gradientUnits="userSpaceOnUse">
<stop stop-color="#EDFEF1"/>
<stop offset="1" stop-color="#DCFCE3"/>
</linearGradient>
<clipPath id="clip0_1439_13184">
<rect width="79.0476" height="79.0476" fill="white" transform="translate(171.828 62.7311) rotate(142.522)"/>
</clipPath>
<clipPath id="clip1_1439_13184">
<rect width="44" height="61" fill="white" transform="translate(0 82)"/>
</clipPath>
</defs>
</svg>
