<svg width="130" height="107" viewBox="0 0 130 107" fill="none" xmlns="http://www.w3.org/2000/svg">
<circle cx="64" cy="60" r="47" fill="#EFE8FE"/>
<circle cx="50" cy="55" r="12" fill="#D9CBFC"/>
<circle cx="88" cy="55.0033" r="12" fill="#D9CBFC"/>
<path d="M32.1932 7.25502C32.1448 6.43621 33.0485 5.91061 33.7363 6.35752L47.6235 15.3812C48.2484 15.7873 48.2256 16.7095 47.5814 17.0842L34.6709 24.5931C34.0267 24.9678 33.2138 24.5316 33.1698 23.7877L32.1932 7.25502Z" fill="#9168F5"/>
<path fill-rule="evenodd" clip-rule="evenodd" d="M73.0381 54.9982C72.5221 54.9982 72.0875 54.6056 72.0688 54.0899C72.0617 53.895 72.0581 53.6983 72.0581 53.5C72.0581 48.8056 74.0728 45 76.5581 45C79.0434 45 81.0581 48.8056 81.0581 53.5C81.0581 53.6983 81.0545 53.895 81.0474 54.0899C81.0287 54.6056 80.5941 54.9982 80.0782 54.9982H73.0381Z" fill="#1A1B1E"/>
<path fill-rule="evenodd" clip-rule="evenodd" d="M57.9801 54.9982C57.4642 54.9982 57.0296 54.6057 57.0108 54.0901C57.0036 53.8941 57 53.6962 57 53.4967C57 48.8023 59.0147 44.9967 61.5 44.9967C63.9853 44.9967 66 48.8023 66 53.4967C66 53.6962 65.9964 53.8941 65.9892 54.0901C65.9704 54.6057 65.5358 54.9982 65.0199 54.9982H57.9801Z" fill="#1A1B1E"/>
<g clip-path="url(#clip0_1439_13185)">
<path d="M125.776 36.1224C125.903 36.0753 126.03 36.0224 126.156 35.9626C128.015 35.0776 128.924 33.1045 128.186 31.5558C127.449 30.0072 125.344 29.4689 123.486 30.3538C123.36 30.4136 123.239 30.4787 123.122 30.5481C123.075 30.4205 123.022 30.2936 122.962 30.168C122.077 28.3083 120.104 27.3992 118.555 28.1373C117.006 28.8743 116.468 30.979 117.352 32.8379C117.412 32.9635 117.477 33.0846 117.547 33.2016C117.419 33.2487 117.292 33.3016 117.167 33.3614C115.308 34.2455 114.399 36.2186 115.137 37.7684C115.874 39.3171 117.979 39.8553 119.838 38.9704C119.963 38.9106 120.084 38.8455 120.201 38.7761C120.248 38.9037 120.301 39.0306 120.361 39.1562C121.246 41.015 123.219 41.9242 124.768 41.1869C126.317 40.4497 126.855 38.3449 125.97 36.486C125.91 36.3604 125.845 36.2394 125.776 36.1224ZM120.902 36.8028C119.719 36.3831 119.101 35.0846 119.521 33.9023C119.941 32.7199 121.239 32.1017 122.421 32.5214C123.604 32.9411 124.222 34.2396 123.802 35.4219C123.383 36.6043 122.084 37.2225 120.902 36.8028Z" fill="#DB620F"/>
</g>
<g clip-path="url(#clip1_1439_13185)">
<path d="M109.895 12.8462C109.929 12.7376 109.958 12.6265 109.983 12.5127C110.343 10.8292 109.499 9.22064 108.096 8.9201C106.693 8.61955 105.264 9.7407 104.903 11.4242C104.879 11.538 104.86 11.6515 104.846 11.7644C104.738 11.7306 104.627 11.701 104.513 11.6766C102.829 11.3152 101.22 12.1601 100.92 13.5633C100.619 14.9663 101.74 16.396 103.424 16.7568C103.538 16.7812 103.651 16.7997 103.764 16.8133C103.73 16.9219 103.701 17.033 103.676 17.1468C103.315 18.8297 104.16 20.4383 105.563 20.739C106.966 21.0396 108.396 19.9184 108.757 18.2349C108.781 18.1211 108.799 18.0077 108.813 17.8948C108.922 17.9286 109.033 17.9582 109.147 17.9825C110.83 18.3433 112.439 17.4984 112.739 16.0958C113.04 14.6932 111.919 13.2635 110.235 12.9027C110.121 12.8784 110.008 12.8598 109.895 12.8462ZM107.862 16.4245C106.981 16.9945 105.805 16.7425 105.235 15.8616C104.665 14.9807 104.917 13.8046 105.798 13.2346C106.679 12.6646 107.855 12.9166 108.425 13.7975C108.995 14.6784 108.743 15.8545 107.862 16.4245Z" fill="#DB620F"/>
</g>
<g clip-path="url(#clip2_1439_13185)">
<path d="M14.4589 28.9829C14.6322 29.0102 14.8083 29.0305 14.9874 29.0423C17.6369 29.2167 19.9026 27.5682 20.0479 25.3607C20.1932 23.1533 18.1629 21.2221 15.5134 21.0478C15.3344 21.036 15.1571 21.0331 14.9817 21.0375C15.0091 20.8642 15.0294 20.6881 15.0412 20.509C15.2164 17.8588 13.5679 15.593 11.3596 15.4485C9.15145 15.3024 7.22024 17.3326 7.0459 19.9821C7.03411 20.1612 7.0312 20.3384 7.03558 20.5138C6.86231 20.4865 6.6862 20.4661 6.50713 20.4543C3.85845 20.2793 1.59268 21.9278 1.44732 24.1368C1.30207 26.3442 3.33228 28.2754 5.98181 28.4497C6.16087 28.4615 6.33813 28.4644 6.51349 28.46C6.48617 28.6333 6.46583 28.8094 6.45405 28.9885C6.2797 31.638 7.92821 33.9038 10.1356 34.049C12.343 34.1943 14.2742 32.1641 14.4486 29.5146C14.4604 29.3355 14.4633 29.1582 14.4589 28.9829ZM8.54442 26.6799C7.47781 25.463 7.5996 23.6122 8.81647 22.5456C10.0333 21.479 11.8842 21.6007 12.9508 22.8176C14.0174 24.0345 13.8956 25.8853 12.6788 26.952C11.4619 28.0186 9.61102 27.8968 8.54442 26.6799Z" fill="#DB620F"/>
</g>
<defs>
<clipPath id="clip0_1439_13185">
<rect width="11.8105" height="11.8105" fill="white" transform="translate(118.072 27.121) rotate(19.5421)"/>
</clipPath>
<clipPath id="clip1_1439_13185">
<rect width="9.87729" height="9.87729" fill="white" transform="translate(100 13.3659) rotate(-32.9056)"/>
</clipPath>
<clipPath id="clip2_1439_13185">
<rect width="15.2326" height="15.2326" fill="white" transform="translate(11.4551 14) rotate(48.7648)"/>
</clipPath>
</defs>
</svg>
