<svg width="141" height="108" viewBox="0 0 141 108" fill="none" xmlns="http://www.w3.org/2000/svg">
<path d="M103 60.5L122 53" stroke="url(#paint0_linear_1439_13104)" stroke-width="13" stroke-linecap="round" stroke-linejoin="round"/>
<circle cx="60" cy="60.0033" r="47" fill="#FDECEF"/>
<circle cx="46" cy="55.0033" r="12" fill="#F9C6D0"/>
<circle cx="84" cy="55.0033" r="12" fill="#F9C6D0"/>
<path d="M28.1932 7.25502C28.1448 6.43621 29.0485 5.91061 29.7363 6.35752L43.6235 15.3812C44.2484 15.7873 44.2256 16.7095 43.5814 17.0842L30.6709 24.5931C30.0267 24.9678 29.2138 24.5316 29.1698 23.7877L28.1932 7.25502Z" fill="#EB4869"/>
<path d="M21.5 57L9 64.5L21.5 73.5C23 74.5 23.5 78 20.5 80.5" stroke="url(#paint1_linear_1439_13104)" stroke-width="13" stroke-linecap="round" stroke-linejoin="round"/>
<path d="M100 24.4715L103 21.9715C102 21.1382 100.4 18.8715 102 16.4715C103.6 14.0715 106 15.1382 107 15.9715C108 15.1382 110.6 14.1715 113 16.9715C115.4 19.7715 114 22.1382 113 22.9715C113.5 23.8049 114 25.8715 112 27.4715C109.5 29.4715 107 27.4715 106.5 25.9715L103.5 28.4715" stroke="#DADADA" stroke-linecap="round" stroke-linejoin="round"/>
<path d="M14.2714 32.7581L10.8063 30.9572C10.4242 32.2016 8.95185 34.5532 6.12 34.0049C3.28815 33.4566 3.34452 30.8309 3.7267 29.5865C2.57167 28.9862 0.675383 26.9617 2.33045 23.6662C3.98551 20.3706 6.70934 20.7473 7.86436 21.3476C8.43975 20.5644 10.1527 19.3046 12.4012 20.531C15.2119 22.0639 14.3334 25.1426 13.1431 26.1834L16.6082 27.9843" stroke="#DADADA" stroke-linecap="round" stroke-linejoin="round"/>
<path fill-rule="evenodd" clip-rule="evenodd" d="M61.8505 43.3609C62.1263 43.441 62.3149 43.6968 62.2997 43.9835V43.9835C62.051 48.6713 59.8375 52.3648 57.3557 52.2332C54.8739 52.1015 53.0636 48.1945 53.3123 43.5067C53.3392 43.0008 53.3889 42.5064 53.4594 42.0272C53.5435 41.4552 54.1221 41.1138 54.6772 41.2752L61.8505 43.3609Z" fill="#1A1B1E"/>
<path fill-rule="evenodd" clip-rule="evenodd" d="M67.5557 43.3609C67.28 43.441 67.0914 43.6968 67.1066 43.9835V43.9835C67.3553 48.6713 69.5688 52.3648 72.0506 52.2332C74.5324 52.1015 76.3426 48.1945 76.0939 43.5067C76.0671 43.0008 76.0174 42.5064 75.9469 42.0272C75.8628 41.4552 75.2841 41.1138 74.729 41.2752L67.5557 43.3609Z" fill="#1A1B1E"/>
<path d="M137.848 23.3556C138.136 22.8803 138.751 22.7222 139.232 23V23C139.713 23.2778 139.884 23.8894 139.616 24.376L117.429 64.6832C116.899 65.645 115.683 65.9842 114.732 65.4352V65.4352C113.781 64.8863 113.467 63.6634 114.035 62.724L137.848 23.3556Z" fill="#515151"/>
<defs>
<linearGradient id="paint0_linear_1439_13104" x1="102" y1="61" x2="128" y2="50.5" gradientUnits="userSpaceOnUse">
<stop stop-color="#FDECEF"/>
<stop offset="1" stop-color="#F9C6D0"/>
</linearGradient>
<linearGradient id="paint1_linear_1439_13104" x1="23" y1="59.5" x2="21.5" y2="86.5" gradientUnits="userSpaceOnUse">
<stop stop-color="#FDECEF"/>
<stop offset="1" stop-color="#F9C6D0"/>
</linearGradient>
</defs>
</svg>
