<svg width="123" height="131" viewBox="0 0 123 131" fill="none" xmlns="http://www.w3.org/2000/svg">
<path d="M98.0001 84.9296L115.645 74.6389" stroke="url(#paint0_linear_1439_13186)" stroke-width="13" stroke-linecap="round" stroke-linejoin="round"/>
<circle cx="62" cy="83.0033" r="47" fill="#E9F0FE"/>
<circle cx="48" cy="78.0033" r="12" fill="#CFDDFD"/>
<circle cx="86" cy="78.0033" r="12" fill="#CFDDFD"/>
<path d="M30.1932 30.255C30.1448 29.4362 31.0485 28.9106 31.7363 29.3576L45.6235 38.3813C46.2484 38.7873 46.2256 39.7096 45.5814 40.0842L32.6709 47.5931C32.0267 47.9678 31.2138 47.5316 31.1698 46.7877L30.1932 30.255Z" fill="#749DF8"/>
<ellipse cx="59.1084" cy="72.7343" rx="3.87337" ry="4.53523" transform="rotate(-3.04 59.1084 72.7343)" fill="#1A1B1E"/>
<ellipse cx="74.8445" cy="72.7343" rx="3.87337" ry="4.53523" transform="rotate(2.96 74.8445 72.7343)" fill="#1A1B1E"/>
<g clip-path="url(#clip0_1439_13186)">
<path d="M102.665 24.2262C103.76 19.8603 101.782 15.4493 97.2415 13.8141C95.7915 13.2917 94.3112 13.125 92.8986 13.2553C92.2406 10.0756 89.7792 7.27528 86.2723 6.19296C82.7655 5.11064 79.1497 6.03533 76.8128 8.29544C75.7236 7.39296 74.4026 6.69508 72.9103 6.30941C68.2398 5.09726 64.1183 7.63033 62.5619 11.8537C60.9511 16.2381 62.594 20.8405 66.9805 22.8214L63.2098 35.0387C63.0028 35.7096 63.2527 36.4326 63.8266 36.8344C66.8685 38.9527 76.7499 45.1054 87.6202 44.2294C88.2787 44.1752 88.8433 43.7269 89.0385 43.0945L92.8328 30.8003C97.5727 31.636 101.525 28.7558 102.664 24.2305L102.665 24.2262Z" fill="#FAFAFA"/>
<path d="M89.6361 41.1587L89.0386 43.0945C88.8434 43.727 88.2831 44.1765 87.6204 44.2294C76.7501 45.1055 66.87 38.9485 63.8268 36.8345C63.2529 36.4327 63.0029 35.7097 63.21 35.0388L63.8101 33.0944C63.887 33.179 63.9709 33.2564 64.0685 33.3193C67.3104 35.5788 77.8322 42.1305 89.4119 41.2019C89.4896 41.1931 89.5643 41.1787 89.639 41.1643L89.6361 41.1587Z" fill="#EF5350"/>
<path d="M74.0613 21.5059L74.0741 21.5099C74.3692 21.601 74.5349 21.9142 74.4439 22.209L71.7402 30.9693C71.6492 31.2641 71.3358 31.4295 71.0408 31.3384L71.0322 31.3358C70.7371 31.2447 70.5715 30.9315 70.6625 30.6366L73.3661 21.8764C73.4571 21.5816 73.7705 21.4162 74.0656 21.5073L74.0613 21.5059Z" fill="#E6E7E8"/>
<path d="M81.694 23.0005L81.7026 23.0031C81.9976 23.0942 82.1633 23.4074 82.0723 23.7022L79.3686 32.4625C79.2776 32.7573 78.9643 32.9227 78.6692 32.8316L78.6606 32.829C78.3655 32.7379 78.1999 32.4247 78.2909 32.1298L80.9932 23.3739C81.0842 23.079 81.3976 22.9137 81.6927 23.0047L81.694 23.0005Z" fill="#E6E7E8"/>
<path d="M87.7167 25.7204L87.7253 25.723C88.0204 25.8141 88.186 26.1273 88.095 26.4222L85.3913 35.1824C85.3003 35.4773 84.987 35.6427 84.6919 35.5516L84.6833 35.5489C84.3882 35.4579 84.2226 35.1446 84.3136 34.8498L87.0173 26.0896C87.1083 25.7947 87.4216 25.6293 87.7167 25.7204Z" fill="#E6E7E8"/>
</g>
<g clip-path="url(#clip1_1439_13186)">
<path d="M121 45.8427C121 43.7484 120.752 40.7992 119.579 38.6416C118.622 36.8866 117.254 36 115.5 36C113.751 36 112.378 36.8866 111.426 38.6371C110.248 40.7992 110 43.7484 110 45.8381C110 48.1269 110.846 50.3343 111.913 53.1297C112.236 53.9755 112.635 55.0159 113.02 56.1105C112.83 56.1603 112.688 56.3367 112.688 56.5447C112.688 56.789 112.883 56.9925 113.126 56.9925H113.321C114.229 59.7201 114.822 62.2396 115.186 64.9128L115.256 65.433L115.31 65.8265H115.69L115.744 65.4285L115.814 64.9173C116.178 62.2441 116.771 59.7246 117.679 56.9971H117.874C118.117 56.9971 118.312 56.798 118.312 56.5493C118.312 56.3412 118.17 56.1648 117.98 56.115C118.356 55.043 118.742 54.0298 119.087 53.1342C120.159 50.3388 121 48.1314 121 45.8427V45.8427ZM118.179 45.1868C118.179 47.2042 117.701 49.1944 117.094 51.7184C116.877 52.6231 116.62 53.6906 116.368 54.8757C116.479 53.7674 116.589 52.7542 116.691 51.8224C116.975 49.2713 117.196 47.2539 117.196 45.1913C117.196 43.287 117.13 40.6092 116.824 38.6506C116.731 38.0581 116.616 37.5696 116.483 37.1806C116.837 37.5198 117.147 38.0671 117.4 38.809C118.046 40.6997 118.184 43.3232 118.184 45.1913L118.179 45.1868ZM116.558 45.1868C116.558 47.2223 116.337 49.2216 116.058 51.7591C115.916 53.0392 115.757 54.4821 115.611 56.1015H115.389C115.243 54.4867 115.084 53.0392 114.942 51.7591C114.663 49.2261 114.442 47.2268 114.442 45.1868C114.442 43.3051 114.504 40.659 114.805 38.7502C115.11 36.8051 115.46 36.7463 115.5 36.7463C115.54 36.7463 115.89 36.8006 116.195 38.7502C116.496 40.659 116.558 43.3051 116.558 45.1868V45.1868ZM114.176 38.6461C113.87 40.6047 113.804 43.2825 113.804 45.1868C113.804 47.2584 114.025 49.2758 114.309 51.8315C114.411 52.7542 114.521 53.7674 114.632 54.8757C114.38 53.6906 114.123 52.6231 113.901 51.7094C113.295 49.1899 112.816 47.1996 112.816 45.1868C112.816 43.3187 112.954 40.6952 113.6 38.8044C113.853 38.0626 114.158 37.5198 114.517 37.1761C114.38 37.5605 114.264 38.0536 114.176 38.6461V38.6461ZM113.755 37.072C113.463 37.4655 113.211 37.9722 113.002 38.5873C112.325 40.5685 112.183 43.2689 112.183 45.1823C112.183 47.272 112.67 49.2984 113.286 51.8677C113.583 53.1116 113.924 54.5138 114.238 56.0969H113.689C113.286 54.9254 112.87 53.8489 112.506 52.8899C111.461 50.1624 110.638 48.0093 110.638 45.8427C110.638 43.8253 110.872 40.9937 111.979 38.9537C112.453 38.0807 113.051 37.452 113.76 37.072H113.755ZM117.307 56.1015H116.758C117.072 54.5138 117.409 53.1161 117.705 51.8722C118.321 49.3075 118.808 47.2765 118.808 45.1868C118.808 43.2689 118.666 40.5685 117.989 38.5918C117.776 37.9722 117.524 37.4655 117.231 37.0765C117.94 37.452 118.538 38.0852 119.012 38.9582C120.123 40.9982 120.353 43.8298 120.353 45.8472C120.353 48.0138 119.53 50.1669 118.485 52.9035C118.139 53.8082 117.71 54.9299 117.302 56.1105L117.307 56.1015ZM115.465 56.9971H115.531C115.518 57.1373 115.509 57.273 115.496 57.4087C115.487 57.273 115.473 57.1373 115.46 56.9971H115.465ZM117.006 56.9971C116.656 58.0555 116.355 59.0959 116.098 60.1227C116.235 59.0823 116.395 58.0465 116.589 56.9971H117.006V56.9971ZM114.406 56.9971C114.601 58.0465 114.76 59.0823 114.898 60.1227C114.636 59.0914 114.335 58.0555 113.99 56.9971H114.406V56.9971Z" fill="#E6E7E8"/>
<path d="M116.501 63.0492H114.504L113.33 84.8017C113.33 86.0139 114.295 87 115.482 87H115.522C116.709 87 117.674 86.0139 117.674 84.7836L116.501 63.0492V63.0492Z" fill="#EF5350"/>
<path d="M116.532 84.1232C116.532 84.7067 116.071 85.1771 115.5 85.1771C114.929 85.1771 114.468 84.7067 114.468 84.1232C114.468 83.5397 114.929 83.0693 115.5 83.0693C116.071 83.0693 116.532 83.5397 116.532 84.1232Z" fill="#EEEEEE"/>
</g>
<path d="M27.6452 84.9296L10 74.6389" stroke="url(#paint1_linear_1439_13186)" stroke-width="13" stroke-linecap="round" stroke-linejoin="round"/>
<g clip-path="url(#clip2_1439_13186)">
<path d="M10.8605 36.2449L4.11296 36.6467C1.84465 36.7818 0.113558 38.7987 0.253532 41.1493L0.827043 50.7807C0.967017 53.1313 2.9255 54.9331 5.19381 54.7981L7.30766 54.6722L8.0206 66.6451L10.536 66.4953L9.8231 54.5224L11.937 54.3965C14.2053 54.2615 15.9361 52.24 15.7961 49.8893L15.2226 40.258C15.0826 37.9073 13.1244 36.1101 10.8561 36.2452L10.8605 36.2449ZM4.19106 49.6349C4.20277 49.8316 4.05757 49.9963 3.86781 50.0076C3.67805 50.0189 3.51875 49.8723 3.50704 49.6757L2.98091 40.8401C2.9692 40.6434 3.11412 40.4741 3.29947 40.4631C3.48482 40.4521 3.65322 40.6027 3.66493 40.7993L4.19106 49.6349V49.6349ZM6.81131 49.8323C6.62155 49.8436 6.45784 49.6973 6.44613 49.5006L5.92 40.665C5.90829 40.4684 6.05322 40.2991 6.24298 40.2878C6.43274 40.2765 6.59231 40.4277 6.60402 40.6243L7.13015 49.4599C7.14186 49.6566 6.99666 49.8212 6.81131 49.8323ZM10.0737 49.2846C10.0854 49.4813 9.94017 49.646 9.7504 49.6573C9.56064 49.6686 9.40134 49.522 9.38963 49.3254L8.8635 40.4898C8.85179 40.2931 8.99672 40.1239 9.18207 40.1128C9.36742 40.1018 9.53582 40.2524 9.54753 40.449L10.0737 49.2846ZM13.0127 49.1096C13.0245 49.3063 12.8793 49.471 12.6939 49.482C12.5086 49.493 12.3404 49.347 12.3287 49.1504L11.8026 40.3148C11.7909 40.1181 11.9358 39.9488 12.1256 39.9375C12.3153 39.9262 12.4749 40.0774 12.4866 40.274L13.0127 49.1096Z" fill="#EEEEEE"/>
<path d="M10.6084 65.4032L7.82377 65.5691L8.10425 85.1541C8.18105 86.4438 9.254 87.4309 10.4985 87.3568L10.5382 87.3544C11.7827 87.2803 12.7309 86.1729 12.653 84.8649L10.6084 65.4032Z" fill="#EF5350"/>
<path d="M11.4154 84.2364C11.4522 84.8538 10.9967 85.3858 10.4009 85.4212C9.80515 85.4567 9.28976 84.9826 9.253 84.3652C9.21623 83.7478 9.67171 83.2158 10.2675 83.1803C10.8632 83.1449 11.3786 83.619 11.4154 84.2364Z" fill="#EEEEEE"/>
</g>
<defs>
<linearGradient id="paint0_linear_1439_13186" x1="96.9887" y1="85.4061" x2="121.321" y2="71.4706" gradientUnits="userSpaceOnUse">
<stop stop-color="#E9F0FE"/>
<stop offset="1" stop-color="#CFDDFD"/>
</linearGradient>
<linearGradient id="paint1_linear_1439_13186" x1="28.6566" y1="85.4061" x2="4.32445" y2="71.4706" gradientUnits="userSpaceOnUse">
<stop stop-color="#E9F0FE"/>
<stop offset="1" stop-color="#CFDDFD"/>
</linearGradient>
<clipPath id="clip0_1439_13186">
<rect width="42" height="38" fill="white" transform="translate(66.2063) rotate(17.1519)"/>
</clipPath>
<clipPath id="clip1_1439_13186">
<rect width="11" height="51" fill="white" transform="translate(110 36)"/>
</clipPath>
<clipPath id="clip2_1439_13186">
<rect width="15" height="51" fill="white" transform="translate(0 36.8916) rotate(-3.40773)"/>
</clipPath>
</defs>
</svg>
