<svg width="158" height="108" viewBox="0 0 158 108" fill="none" xmlns="http://www.w3.org/2000/svg">
<path d="M110 64.5L129 57" stroke="url(#paint0_linear_1439_13193)" stroke-width="13" stroke-linecap="round" stroke-linejoin="round"/>
<circle cx="73" cy="60.0033" r="47" fill="#FFFBE8"/>
<circle cx="59" cy="55.0033" r="12" fill="#FFF2BD"/>
<circle cx="97" cy="55.0033" r="12" fill="#FFF2BD"/>
<path d="M41.1932 7.25502C41.1448 6.43621 42.0485 5.91061 42.7363 6.35752L56.6235 15.3812C57.2484 15.7873 57.2256 16.7095 56.5814 17.0842L43.6709 24.5931C43.0267 24.9678 42.2138 24.5316 42.1698 23.7877L41.1932 7.25502Z" fill="#FFE57B"/>
<path fill-rule="evenodd" clip-rule="evenodd" d="M137.51 46.3139C148.112 39.2208 158.893 20.7243 142.735 15.6604C126.745 10.0618 124.373 31.3475 128.635 43.3704C130.144 43.6812 131.666 44.0806 133.146 44.5717C134.627 45.0628 136.082 45.6614 137.519 46.317L137.51 46.3139Z" fill="#FFE57B"/>
<path fill-rule="evenodd" clip-rule="evenodd" d="M150.257 29.9236C152.105 23.9094 150.676 18.1467 142.735 15.6604C134.873 12.9051 130.293 16.6751 128.196 22.6486C136.373 22.5162 143.761 24.8927 150.257 29.9236V29.9236Z" fill="#EB4869"/>
<path fill-rule="evenodd" clip-rule="evenodd" d="M137.509 46.3139C140.176 44.501 142.885 41.9861 145.136 39.1399C139.549 35.5274 133.414 33.5665 126.776 33.1242C126.898 36.7259 127.558 40.3584 128.625 43.3673C130.134 43.6781 131.656 44.0774 133.137 44.5685C134.617 45.0596 136.073 45.6582 137.509 46.3139Z" fill="#749DF8"/>
<path fill-rule="evenodd" clip-rule="evenodd" d="M126.954 68.8962C130.76 66.2184 129.997 61.4061 132.451 53.3386C133.634 49.4219 135.074 47.9082 137.516 46.3266C134.882 44.3256 131.911 43.3403 128.632 43.38C129.604 46.1044 129.857 48.169 128.465 52.0164C125.611 59.9517 122.12 63.3631 123.575 67.7755C124.209 69.0395 125.69 69.5306 126.954 68.8962Z" fill="#FFE8CA"/>
<path d="M39 64.5L20 57" stroke="url(#paint1_linear_1439_13193)" stroke-width="13" stroke-linecap="round" stroke-linejoin="round"/>
<path fill-rule="evenodd" clip-rule="evenodd" d="M22.346 43.141C29.4787 32.5657 32.4652 11.3659 15.5926 12.7875C-1.32766 13.6511 4.52572 34.2531 13.0173 43.7719C14.5317 43.4891 16.0914 43.2834 17.6478 43.1781C19.2043 43.0729 20.7781 43.0767 22.356 43.1404L22.346 43.141Z" fill="#FFE57B"/>
<path fill-rule="evenodd" clip-rule="evenodd" d="M27.9497 23.1474C27.3856 16.8812 23.8842 12.0865 15.5926 12.7875C7.27209 13.2099 4.458 18.4317 4.77535 24.7547C12.2956 21.5399 20.0332 20.9465 27.9497 23.1474V23.1474Z" fill="#EB4869"/>
<path fill-rule="evenodd" clip-rule="evenodd" d="M22.3459 43.1411C24.1287 40.4547 25.686 37.1019 26.6931 33.616C20.1551 32.3844 13.7345 32.8887 7.42187 34.9894C8.89707 38.2774 10.8816 41.3906 13.0072 43.7726C14.5216 43.4898 16.0813 43.2841 17.6377 43.1788C19.1941 43.0736 20.768 43.0774 22.3459 43.1411Z" fill="#749DF8"/>
<path fill-rule="evenodd" clip-rule="evenodd" d="M21.1131 68.0381C23.6244 64.1197 21.0976 59.9536 20.3192 51.557C19.9335 47.4837 20.694 45.538 22.3567 43.1504C19.1616 42.294 16.0388 42.5052 13.018 43.7819C14.9478 45.9366 15.9626 47.7523 16.1288 51.8404C16.4881 60.2653 14.5458 64.7437 17.5612 68.2783C18.6264 69.2086 20.1828 69.1033 21.1131 68.0381Z" fill="#FFE8CA"/>
<path d="M154 18C154.667 19 155.8 21.7 155 24.5" stroke="#DADADA" stroke-linecap="round"/>
<path d="M2.03857 15.6091C2.40633 14.4649 3.81421 11.8973 6.50367 10.7808" stroke="#DADADA" stroke-linecap="round"/>
<path d="M156 18C156.667 19 157.8 21.7 157 24.5" stroke="#DADADA" stroke-linecap="round"/>
<path d="M0.793701 14.0437C1.16146 12.8995 2.56933 10.3319 5.2588 9.21533" stroke="#DADADA" stroke-linecap="round"/>
<path d="M68 48L74 52.2105L68 56" stroke="black" stroke-width="2" stroke-linecap="round" stroke-linejoin="round"/>
<path d="M89 48L83 52.2105L89 56" stroke="black" stroke-width="2" stroke-linecap="round" stroke-linejoin="round"/>
<defs>
<linearGradient id="paint0_linear_1439_13193" x1="109" y1="65" x2="135" y2="54.5" gradientUnits="userSpaceOnUse">
<stop stop-color="#FFFBE8"/>
<stop offset="1" stop-color="#FFF2BD"/>
</linearGradient>
<linearGradient id="paint1_linear_1439_13193" x1="40" y1="65" x2="14" y2="54.5" gradientUnits="userSpaceOnUse">
<stop stop-color="#FFFBE8"/>
<stop offset="1" stop-color="#FFF2BD"/>
</linearGradient>
</defs>
</svg>
