<svg width="124" height="108" viewBox="0 0 124 108" fill="none" xmlns="http://www.w3.org/2000/svg">
<path d="M98.1927 58L104.5 65.5L98.1927 74.5C96.6927 75.5 96.1927 79 99.1927 81.5" stroke="url(#paint0_linear_1439_13187)" stroke-width="13" stroke-linecap="round" stroke-linejoin="round"/>
<circle cx="54" cy="60.0033" r="47" fill="#E9F0FE"/>
<circle cx="40" cy="55.0033" r="12" fill="#CFDDFD"/>
<circle cx="78" cy="55.0033" r="12" fill="#CFDDFD"/>
<path d="M22.1932 7.25502C22.1448 6.43621 23.0485 5.91061 23.7363 6.35752L37.6235 15.3812C38.2484 15.7873 38.2256 16.7095 37.5814 17.0842L24.6709 24.5931C24.0267 24.9678 23.2138 24.5316 23.1698 23.7877L22.1932 7.25502Z" fill="#749DF8"/>
<path fill-rule="evenodd" clip-rule="evenodd" d="M56.7711 50.3264C56.7711 56.0296 52.1537 60.6529 46.4577 60.6529C40.7618 60.6529 36.1443 56.0296 36.1443 50.3264C36.1443 44.6233 40.7618 40 46.4577 40C52.1537 40 56.7711 44.6233 56.7711 50.3264ZM55.1282 50.3264C55.1282 55.1211 51.2463 59.0079 46.4577 59.0079C41.6691 59.0079 37.7872 55.1211 37.7872 50.3264C37.7872 45.5318 41.6691 41.645 46.4577 41.645C51.2463 41.645 55.1282 45.5318 55.1282 50.3264Z" fill="#1A1B1E"/>
<path fill-rule="evenodd" clip-rule="evenodd" d="M81.8559 50.3264C81.8559 56.0296 77.2384 60.6529 71.5424 60.6529C65.8465 60.6529 61.229 56.0296 61.229 50.3264C61.229 44.6233 65.8465 40 71.5424 40C77.2384 40 81.8559 44.6233 81.8559 50.3264ZM80.213 50.3264C80.213 55.1211 76.3311 59.0079 71.5425 59.0079C66.7539 59.0079 62.872 55.1211 62.872 50.3264C62.872 45.5318 66.7539 41.645 71.5425 41.645C76.3311 41.645 80.213 45.5318 80.213 50.3264Z" fill="#1A1B1E"/>
<path fill-rule="evenodd" clip-rule="evenodd" d="M37.3818 48.9211C36.6984 49.0232 36.1738 49.6133 36.1738 50.3264C36.1738 51.0391 36.698 51.6296 37.3818 51.7318C37.3128 51.7421 37.2423 51.7474 37.1705 51.7474H35.4192C34.6351 51.7474 34 51.1109 34 50.3264C34 49.5414 34.6358 48.9055 35.4192 48.9055H37.1705C37.2423 48.9055 37.3129 48.9108 37.3818 48.9211Z" fill="#1A1B1E"/>
<path fill-rule="evenodd" clip-rule="evenodd" d="M80.1958 51.5982C80.6614 51.3652 80.9813 50.8833 80.9813 50.3264C80.9813 49.7699 80.6616 49.2878 80.1959 49.0547C80.3866 48.9592 80.6019 48.9055 80.8296 48.9055H82.5809C83.365 48.9055 84.0001 49.542 84.0001 50.3264C84.0001 51.1115 83.3644 51.7474 82.5809 51.7474H80.8296C80.6018 51.7474 80.3865 51.6937 80.1958 51.5982Z" fill="#1A1B1E"/>
<path fill-rule="evenodd" clip-rule="evenodd" d="M62.5882 50.1245C60.3433 47.4637 58.1669 47.2727 55.9318 49.5514L55.338 48.1936C55.2987 48.1038 55.2514 48.0201 55.1973 47.9429C57.5876 45.7894 60.7588 45.8784 63.0845 48.21C63.0835 48.2136 63.0825 48.2173 63.0815 48.2209L62.6282 49.9126C62.6093 49.9832 62.5961 50.054 62.5882 50.1245Z" fill="#1A1B1E"/>
<path fill-rule="evenodd" clip-rule="evenodd" d="M52.85 46.356C53.1258 46.4361 53.3144 46.6919 53.2992 46.9786V46.9786C53.0505 51.6665 50.837 55.36 48.3552 55.2283C45.8734 55.0966 44.0631 51.1896 44.3118 46.5018C44.3387 45.9959 44.3884 45.5015 44.4589 45.0223C44.543 44.4504 45.1216 44.1089 45.6767 44.2703L52.85 46.356Z" fill="#1A1B1E"/>
<path fill-rule="evenodd" clip-rule="evenodd" d="M64.9751 46.356C64.6994 46.4361 64.5108 46.6919 64.526 46.9786V46.9786C64.7747 51.6665 66.9882 55.36 69.47 55.2283C71.9518 55.0966 73.7621 51.1896 73.5134 46.5018C73.4865 45.9959 73.4368 45.5015 73.3663 45.0223C73.2822 44.4504 72.7036 44.1089 72.1485 44.2703L64.9751 46.356Z" fill="#1A1B1E"/>
<g clip-path="url(#clip0_1439_13187)">
<path d="M116.029 41.7983C115.459 40.0193 115.351 37.2416 114 31C112.649 37.2416 112.541 40.0193 111.971 41.7983C110.643 42.519 108.603 43.0558 104 44.5C108.603 45.9442 110.643 46.4795 111.971 47.2016C112.541 48.9806 112.649 51.7583 114 58C115.351 51.7583 115.459 48.9806 116.029 47.2016C117.357 46.4809 119.397 45.9442 124 44.5C119.397 43.0558 117.357 42.5204 116.029 41.7983Z" fill="#FFC400"/>
</g>
<path d="M13.3073 58L7 65.5L13.3073 74.5C14.8073 75.5 15.3073 79 12.3073 81.5" stroke="url(#paint1_linear_1439_13187)" stroke-width="13" stroke-linecap="round" stroke-linejoin="round"/>
<defs>
<linearGradient id="paint0_linear_1439_13187" x1="96.6927" y1="60.5" x2="98.1927" y2="87.5" gradientUnits="userSpaceOnUse">
<stop stop-color="#E9F0FE"/>
<stop offset="1" stop-color="#CFDDFD"/>
</linearGradient>
<linearGradient id="paint1_linear_1439_13187" x1="14.8073" y1="60.5" x2="13.3073" y2="87.5" gradientUnits="userSpaceOnUse">
<stop stop-color="#E9F0FE"/>
<stop offset="1" stop-color="#CFDDFD"/>
</linearGradient>
<clipPath id="clip0_1439_13187">
<rect width="20" height="27" fill="white" transform="translate(104 31)"/>
</clipPath>
</defs>
</svg>
