<svg width="144" height="127" viewBox="0 0 144 127" fill="none" xmlns="http://www.w3.org/2000/svg">
<g clip-path="url(#clip0_1439_13192)">
<path d="M139.614 0.956955C133.249 0.362219 127.319 2.25275 121.391 4.1446C115.462 6.03674 109.532 7.92888 103.167 7.33253L107.312 31.028C113.677 31.6244 119.607 29.7323 125.537 27.8401C131.466 25.948 137.396 24.0558 143.759 24.6525C140.26 20.4397 136.847 16.7124 133.48 13.2549C135.465 8.81443 137.496 4.64376 139.614 0.956955Z" fill="#FFE57B"/>
</g>
<path d="M93 69.5L112 62" stroke="url(#paint0_linear_1439_13192)" stroke-width="13" stroke-linecap="round" stroke-linejoin="round"/>
<circle cx="57" cy="79.0033" r="47" fill="#FFFBE8"/>
<circle cx="43" cy="74.0033" r="12" fill="#FFF2BD"/>
<circle cx="81" cy="74.0033" r="12" fill="#FFF2BD"/>
<g clip-path="url(#clip1_1439_13192)">
<path d="M39.2971 40.3347C47.3638 36.7384 55.1563 33.7391 62.2088 31.4384C61.3613 30.272 60.4272 29.1906 59.419 28.2037C52.2186 21.1517 41.2635 18.7909 31.6108 23.0944C21.9581 27.3979 16.392 37.1244 16.8248 47.1936C16.8836 48.6038 17.065 50.0207 17.3661 51.4308C23.7912 47.7227 31.2318 43.9305 39.2985 40.3341L39.2971 40.3347Z" fill="#FFE57B"/>
<path d="M61.8173 30.9123C61.0754 29.9462 60.2754 29.0408 59.4191 28.2038C53.6507 29.0469 45.6033 31.5404 37.0722 35.3438C28.5411 39.1473 21.3076 43.4665 16.825 47.1936C16.8753 48.39 17.0141 49.5902 17.2368 50.7877L61.8173 30.9123Z" fill="#D3BDAF"/>
<path d="M40.9518 44.0457C52.9555 38.6941 64.2865 34.5041 73.4188 31.8691C70.6172 27.6017 55.1169 30.1168 38.1202 37.6945C21.1235 45.2722 8.89458 55.1214 10.1956 60.056C18.2594 55.0245 28.9495 49.3967 40.9518 44.0457Z" fill="#FFE57B"/>
</g>
<rect x="99" y="5.72009" width="4" height="82" rx="2" transform="rotate(-10.3708 99 5.72009)" fill="#D3BDAF"/>
<g clip-path="url(#clip2_1439_13192)">
<path d="M69.1102 62.284C63.0587 64.9341 63.9404 64.9341 57.8889 62.284C44.887 56.5914 31 63.3337 31 63.3337C31 63.3337 31.7449 66.89 32.3967 67.6065C33.0485 68.3231 34.1164 66.7506 34.8415 69.9606C35.4035 72.4507 37.9068 79.4512 40.9408 81.3213C44.2236 83.3447 50.9978 83.8032 55.0956 81.219C61.7824 77.0014 61.0086 70.1148 63.4996 69.9606C65.9906 70.114 65.2168 77.0014 71.9036 81.219C76.0014 83.8032 82.7755 83.3447 86.0584 81.3213C89.0924 79.4512 91.5957 72.4516 92.1577 69.9606C92.8828 66.7506 93.9507 68.3231 94.6025 67.6065C95.2543 66.89 95.9992 63.3337 95.9992 63.3337C95.9992 63.3337 82.1122 56.5914 69.1102 62.2849V62.284Z" fill="#1A1B1E"/>
<path d="M37.9142 73.3379C37.5326 72.3163 35.7956 67.1975 36.3082 65.099C36.8207 63.0005 40.064 62.6418 43.3625 62.2848C48.0807 61.7728 59.1471 62.6427 59.4726 67.8118C59.7989 72.9801 56.8654 79.889 50.533 80.81C44.2005 81.731 40.476 80.1957 37.915 73.3387L37.9142 73.3379Z" fill="#404143"/>
<path d="M89.0859 73.3379C89.4674 72.3163 91.2044 67.1975 90.6918 65.099C90.1793 63.0005 86.936 62.6418 83.6375 62.2848C78.9193 61.7728 67.8529 62.6427 67.5274 67.8118C67.2011 72.9801 70.1346 79.889 76.467 80.81C82.7995 81.731 86.524 80.1957 89.085 73.3387L89.0859 73.3379Z" fill="#404143"/>
</g>
<defs>
<linearGradient id="paint0_linear_1439_13192" x1="92" y1="70" x2="118" y2="59.5" gradientUnits="userSpaceOnUse">
<stop stop-color="#FFFBE8"/>
<stop offset="1" stop-color="#FFF2BD"/>
</linearGradient>
<clipPath id="clip0_1439_13192">
<rect width="37" height="26" fill="white" transform="matrix(-0.985042 0.172313 0.172313 0.985042 139.447 0)"/>
</clipPath>
<clipPath id="clip1_1439_13192">
<rect width="69.2235" height="25.0383" fill="white" transform="translate(0 37.1876) rotate(-24.0289)"/>
</clipPath>
<clipPath id="clip2_1439_13192">
<rect width="65" height="23" fill="white" transform="translate(31 60)"/>
</clipPath>
</defs>
</svg>
