<svg width="155" height="121" viewBox="0 0 155 121" fill="none" xmlns="http://www.w3.org/2000/svg">
<path d="M131.73 61.5563C132.032 61.0954 132.642 60.9505 133.119 61.226V61.226C133.609 61.5088 133.782 62.1314 133.51 62.6269L122.411 82.7882C121.891 83.7327 120.697 84.0658 119.763 83.5267V83.5267C118.806 82.974 118.51 81.7302 119.116 80.8056L131.73 61.5563Z" fill="#515151"/>
<g clip-path="url(#clip0_1439_13182)">
<path d="M15.321 39C18.0228 35.9526 24.0145 28.922 23.5774 27.1624C23.0053 24.9069 17.546 17.7163 14.4628 17.4284C11.3875 17.1484 -0.667388 20.6677 0.0319058 19.404C0.731199 18.1322 24.7058 -1.33577 32.414 0.0719439C39.9393 1.45566 51.8829 6.86255 63.0001 18.2842L15.321 39Z" fill="#9168F5"/>
</g>
<ellipse cx="44.953" cy="35.4475" rx="13.6125" ry="42.0386" transform="rotate(66.1511 44.953 35.4475)" fill="#513A88"/>
<path d="M96.9668 86.3719L118.033 83.4991" stroke="url(#paint0_linear_1439_13182)" stroke-width="13" stroke-linecap="round" stroke-linejoin="round"/>
<circle cx="60" cy="73.0033" r="47" fill="#EFE8FE"/>
<circle cx="46" cy="68.0033" r="12" fill="#D9CBFC"/>
<circle cx="84" cy="68.0033" r="12" fill="#D9CBFC"/>
<path fill-rule="evenodd" clip-rule="evenodd" d="M69.0381 67.9982C68.5221 67.9982 68.0875 67.6056 68.0688 67.0899C68.0617 66.895 68.0581 66.6983 68.0581 66.5C68.0581 61.8056 70.0728 58 72.5581 58C75.0434 58 77.0581 61.8056 77.0581 66.5C77.0581 66.6983 77.0545 66.895 77.0474 67.0899C77.0287 67.6056 76.5941 67.9982 76.0782 67.9982H69.0381Z" fill="#1A1B1E"/>
<path fill-rule="evenodd" clip-rule="evenodd" d="M53.98 67.9982C53.464 67.9982 53.0294 67.6056 53.0107 67.0899C53.0036 66.895 53 66.6983 53 66.5C53 61.8056 55.0147 58 57.5 58C59.9853 58 62 61.8056 62 66.5C62 66.6983 61.9964 66.895 61.9893 67.0899C61.9706 67.6056 61.536 67.9982 61.02 67.9982H53.98Z" fill="#1A1B1E"/>
<path d="M107 74C77.4 98.8 32 86 13 76.5C13 103.3 7.33333 115.667 4.5 118.5C34.5 119 96.3 119.7 103.5 118.5C110.7 117.3 110.833 113.167 110 109.5L114.5 110L119.5 72.5L107 74Z" fill="#9168F5"/>
<g clip-path="url(#clip1_1439_13182)">
<path d="M136.62 61.97L154.23 60.58L136.78 58.96C139.34 56.03 143.19 51.43 143.19 51.43C143.19 51.43 138.47 55.58 135.28 58.43L133.93 40L132.64 57.86C129.59 55.17 124.95 51.67 124.95 51.67C124.95 51.67 129.22 56.37 131.84 59.24L114 60.39L131.7 61.87C128.98 64.9 125.2 69.9 125.2 69.9C125.2 69.9 129.95 65.59 132.81 62.97L134.12 80.04L135.53 62.91C138.42 65.46 143.44 69.66 143.44 69.66C143.44 69.66 139.47 65.15 136.63 61.97H136.62Z" fill="#FFA861"/>
</g>
<defs>
<linearGradient id="paint0_linear_1439_13182" x1="95.8322" y1="86.6292" x2="124.707" y2="82.3827" gradientUnits="userSpaceOnUse">
<stop stop-color="#EFE8FE"/>
<stop offset="1" stop-color="#D9CBFC"/>
</linearGradient>
<clipPath id="clip0_1439_13182">
<rect width="63" height="39" fill="white"/>
</clipPath>
<clipPath id="clip1_1439_13182">
<rect width="40.23" height="40.05" fill="white" transform="translate(114 40)"/>
</clipPath>
</defs>
</svg>
