<svg width="107" height="108" viewBox="0 0 107 108" fill="none" xmlns="http://www.w3.org/2000/svg">
<circle cx="55" cy="60.0033" r="47" fill="#EFE8FE"/>
<circle cx="41" cy="55.0033" r="12" fill="#D9CBFC"/>
<circle cx="79" cy="55.0033" r="12" fill="#D9CBFC"/>
<path d="M23.1932 7.25502C23.1448 6.43621 24.0485 5.91061 24.7363 6.35752L38.6235 15.3812C39.2484 15.7873 39.2256 16.7095 38.5814 17.0842L25.6709 24.5931C25.0267 24.9678 24.2138 24.5316 24.1698 23.7877L23.1932 7.25502Z" fill="#9168F5"/>
<path fill-rule="evenodd" clip-rule="evenodd" d="M64.0381 54.9982C63.5221 54.9982 63.0875 54.6056 63.0688 54.0899C63.0617 53.895 63.0581 53.6983 63.0581 53.5C63.0581 48.8056 65.0728 45 67.5581 45C70.0434 45 72.0581 48.8056 72.0581 53.5C72.0581 53.6983 72.0545 53.895 72.0474 54.0899C72.0287 54.6056 71.5941 54.9982 71.0782 54.9982H64.0381Z" fill="#1A1B1E"/>
<path fill-rule="evenodd" clip-rule="evenodd" d="M48.98 54.9982C48.464 54.9982 48.0294 54.6056 48.0107 54.0899C48.0036 53.895 48 53.6983 48 53.5C48 48.8056 50.0147 45 52.5 45C54.9853 45 57 48.8056 57 53.5C57 53.6983 56.9964 53.895 56.9893 54.0899C56.9706 54.6056 56.536 54.9982 56.02 54.9982H48.98Z" fill="#1A1B1E"/>
<g clip-path="url(#clip0_1439_13183)">
<path d="M103.392 26.6568C101.948 26.2006 100.433 26.3603 99.0312 26.7774C97.0888 27.3541 95.1882 28.436 93.754 29.9578C91.9435 31.8771 94.8892 33.6726 96.4167 34.598C97.9056 35.5007 99.5168 36.198 101.17 36.3349C102.819 36.4717 104.517 35.9927 105.678 34.7772C106.836 33.5618 107.354 31.5577 106.743 29.8144C106.196 28.2568 104.836 27.113 103.392 26.6568V26.6568Z" fill="#FF7600"/>
<path d="M97.5648 13.2933C95.6225 12.9609 92.8022 18.3767 91.9693 21.7819C91.4033 24.0988 91.384 26.5199 92.1622 28.5533C92.6543 29.8437 93.5676 29.6384 94.8539 29.6482C96.0759 29.6612 97.3269 29.57 98.5585 29.1822C100.488 28.5761 102.421 27.0902 103.128 25.0536C103.665 23.5057 103.421 21.8601 102.791 20.5437C102.157 19.2239 99.5104 13.6257 97.5648 13.2933V13.2933Z" fill="#FF7600"/>
<path d="M87.8498 25.6043C87.3224 25.1155 86.557 24.5485 85.7659 24.0401C84.9748 23.5318 84.1741 23.056 83.576 22.6911C82.9778 22.3261 82.5791 22.085 82.5791 22.085C82.3154 21.8732 81.5661 21.3714 81.521 21.3453C81.4246 21.2866 81.1769 21.0846 81.0547 21.2931C80.9679 21.4398 80.9486 21.7819 81.2477 21.9644C81.4503 22.0882 82.0742 22.2153 82.4601 22.287C82.4601 22.287 82.8588 22.5282 83.457 22.8931C84.0519 23.2613 84.8559 23.7338 85.6405 24.2389C86.4284 24.7407 87.1777 25.3012 87.6954 25.777C88.2164 26.2495 88.5155 26.6144 88.5155 26.6144L88.6891 26.4613C88.6891 26.4613 88.3836 26.0833 87.8498 25.6043V25.6043Z" fill="#535456"/>
<path d="M87.0907 23.408C86.5955 22.5738 86.0777 21.7656 85.6982 21.1498C85.3156 20.5371 85.0615 20.1298 85.0615 20.1298C84.9136 19.8137 84.4537 19.0023 84.4248 18.96C84.3637 18.859 84.2254 18.5624 84.026 18.6928C83.8845 18.784 83.7173 19.0838 83.9102 19.3901C84.0389 19.5987 84.5502 20.0093 84.8653 20.2537C84.8653 20.2537 85.1194 20.661 85.5021 21.2736C85.8815 21.8862 86.4025 22.6976 86.8913 23.5253C87.3833 24.353 87.8207 25.2165 88.0844 25.891C88.3545 26.5623 88.4703 27.0348 88.4703 27.0348L88.6922 26.9729C88.6922 26.9729 88.5732 26.4906 88.2966 25.8031C88.0297 25.1155 87.5827 24.2389 87.0875 23.4047L87.0907 23.408Z" fill="#535456"/>
<path d="M87.9397 27.7875C87.9397 27.7875 88.0201 28.2828 88.0844 28.5761C88.2645 29.4005 88.6086 30.1761 89.0877 30.8441C89.419 31.3036 89.8467 31.7304 90.403 31.8641C90.8211 31.9651 91.3195 31.8445 91.6443 31.5447C92.1042 30.0946 89.2035 26.8425 89.2035 26.8425L87.9397 27.7843V27.7875Z" fill="#535456"/>
<path d="M90.8823 30.7594L89.9465 31.6881C90.4321 32.5516 90.9209 33.4151 91.4097 34.2787C92.069 35.4453 92.7379 36.6281 93.6769 37.5666C93.8345 37.723 94.0017 37.8762 94.2107 37.9511C94.4198 38.0293 94.6802 38.0163 94.8635 37.8664C95.0468 37.7165 95.1208 37.4591 95.1047 37.231C95.0854 37.0029 94.9922 36.7911 94.8957 36.589C93.8634 34.4383 92.5063 32.4669 90.8856 30.7561L90.8823 30.7594Z" fill="#535456"/>
<path d="M87.3996 25.7183C86.5442 26.5981 86.8754 27.9602 87.9399 27.7875L89.2037 26.8458C89.03 25.6271 87.972 25.1318 87.3996 25.7183Z" fill="#535456"/>
<path d="M94.468 13.0326C92.2716 12.521 89.5574 18.0117 88.9014 21.5441C88.4544 23.9489 88.6313 26.5036 89.6635 28.7195C90.3196 30.1272 91.3197 29.9838 92.7604 30.1011C94.1271 30.2152 95.5164 30.2217 96.8638 29.9154C98.9734 29.4364 101.009 28.0254 101.636 25.9301C102.112 24.3367 101.707 22.577 100.893 21.1302C100.08 19.6899 96.6676 13.5442 94.468 13.0326Z" fill="#FF9B37"/>
<path d="M103.302 28.4393C101.874 27.4552 100.121 27.0544 98.3976 26.9533C96.0082 26.8132 93.4613 27.1847 91.2617 28.1721C88.4864 29.4136 91.0591 32.2812 92.3968 33.7638C93.6993 35.2074 95.2203 36.4945 97.0051 37.2375C98.7899 37.9804 100.871 38.1303 102.642 37.3515C104.411 36.5727 105.781 34.7707 105.788 32.8123C105.794 31.0624 104.733 29.4266 103.302 28.4425V28.4393Z" fill="#FFC782"/>
</g>
<g clip-path="url(#clip1_1439_13183)">
<path d="M12.8205 76.9569C13.3899 75.5538 14.4788 74.4889 15.6942 73.6749C17.3772 72.5466 19.4225 71.7726 21.5094 71.6383C24.1424 71.4677 23.6468 74.8817 23.3855 76.6485C23.1313 78.371 22.641 80.0567 21.6923 81.4172C20.7456 82.7752 19.2938 83.7776 17.6173 83.8967C15.9428 84.0133 14.0689 83.1341 13.1157 81.5517C12.2646 80.1373 12.2511 78.3601 12.8205 76.9569V76.9569Z" fill="#FF7600"/>
<path d="M6.24297 63.9463C7.22563 62.2382 13.1958 63.5196 16.3499 65.0496C18.4955 66.0912 20.3727 67.6203 21.4426 69.5165C22.1228 70.7184 21.3823 71.291 20.5695 72.288C19.8002 73.2376 18.9322 74.143 17.848 74.8444C16.1507 75.9441 13.7736 76.4852 11.7536 75.7314C10.2189 75.158 9.10723 73.9203 8.49515 72.5952C7.88261 71.2656 5.25825 65.6569 6.24297 63.9463V63.9463Z" fill="#FF7600"/>
<path d="M21.9213 64.3141C21.8811 63.5962 21.9325 62.6451 22.0454 61.7115C22.1584 60.778 22.3026 59.8578 22.4029 59.1643C22.5032 58.4709 22.5718 58.0099 22.5718 58.0099C22.5768 57.6717 22.6681 56.7745 22.6767 56.7232C22.6931 56.6115 22.6954 56.292 22.9339 56.3308C23.1022 56.3575 23.3781 56.5608 23.3279 56.9075C23.2941 57.1426 22.9941 57.7041 22.8033 58.0471C22.8033 58.0471 22.7347 58.508 22.6344 59.2015C22.5386 59.8946 22.3899 60.8152 22.2785 61.7417C22.1626 62.6686 22.1165 63.6032 22.1528 64.3054C22.1845 65.008 22.2749 65.4711 22.2749 65.4711L22.0462 65.5072C22.0462 65.5072 21.9498 65.0308 21.9213 64.3141V64.3141Z" fill="#535456"/>
<path d="M20.7135 62.3289C20.3868 61.4155 20.0945 60.5013 19.8621 59.8162C19.6343 59.1308 19.4825 58.6754 19.4825 58.6754C19.3334 58.3598 19.0017 57.4882 18.9875 57.4389C18.9487 57.3274 18.8084 57.0318 19.036 56.9613C19.1965 56.9105 19.5341 56.9729 19.647 57.3168C19.7256 57.5489 19.7157 58.2046 19.703 58.6032C19.703 58.6032 19.8547 59.0587 20.0826 59.7441C20.3125 60.4271 20.6052 61.3458 20.931 62.2502C21.2548 63.157 21.641 64.0445 21.9924 64.6778C22.3372 65.314 22.6274 65.7045 22.6274 65.7045L22.4382 65.8359C22.4382 65.8359 22.1426 65.4367 21.7893 64.7852C21.4299 64.1411 21.0398 63.2378 20.7131 62.3244L20.7135 62.3289Z" fill="#535456"/>
<path d="M23.5455 65.7758C23.5455 65.7758 23.8758 66.1536 24.0607 66.3902C24.5808 67.0546 24.9588 67.8143 25.1678 68.6093C25.3104 69.1575 25.3665 69.7592 25.1146 70.2729C24.9258 70.6593 24.5151 70.9664 24.077 71.0254C22.6668 70.4549 22.0117 66.1466 22.0117 66.1466L23.543 65.7737L23.5455 65.7758Z" fill="#535456"/>
<path d="M23.9582 69.9375L25.2703 69.8089C25.6258 70.7337 25.9793 71.6609 26.3327 72.5881C26.8108 73.8398 27.2954 75.1094 27.4194 76.4312C27.4394 76.6523 27.4508 76.8788 27.3752 77.0876C27.3021 77.2985 27.126 77.4908 26.8936 77.5364C26.6613 77.582 26.4158 77.4748 26.2504 77.3169C26.087 77.1566 25.9833 76.9497 25.8892 76.7466C24.8909 74.5799 24.2378 72.2773 23.9537 69.9379L23.9582 69.9375Z" fill="#535456"/>
<path d="M22.2963 64.0401C23.5195 63.9423 24.3574 65.066 23.5456 65.7758L22.0142 66.1487C21.1862 65.2378 21.4794 64.1069 22.2963 64.0401Z" fill="#535456"/>
<path d="M8.0171 61.3947C9.02373 59.3766 14.984 60.7875 18.1232 62.5348C20.2606 63.7242 22.1156 65.4896 23.1641 67.6978C23.8301 69.1009 23.0818 69.7798 22.2534 70.9643C21.4697 72.0898 20.5888 73.1641 19.4935 74.0066C17.7792 75.3261 15.3943 75.9942 13.3804 75.1411C11.8495 74.4915 10.7525 73.0572 10.1569 71.5078C9.56637 69.9626 7.00842 63.4152 8.0171 61.3947Z" fill="#FF9B37"/>
<path d="M14.2508 78.0243C14.4034 76.2969 15.2123 74.6913 16.2337 73.2992C17.6496 71.3694 19.5599 69.6445 21.7232 68.5798C24.4494 67.2339 25.0175 71.0442 25.3064 73.0202C25.5878 74.944 25.6092 76.9365 25.0433 78.785C24.4774 80.6336 23.2659 82.3318 21.5361 83.2C19.8082 84.0658 17.5466 83.9718 16.034 82.7278C14.682 81.6169 14.0987 79.7562 14.2533 78.0264L14.2508 78.0243Z" fill="#FFC782"/>
</g>
<defs>
<clipPath id="clip0_1439_13183">
<rect width="26" height="25" fill="white" transform="translate(81 13)"/>
</clipPath>
<clipPath id="clip1_1439_13183">
<rect width="26" height="25" fill="white" transform="matrix(-0.637721 0.770267 0.770267 0.637721 16.5808 51)"/>
</clipPath>
</defs>
</svg>
