<svg width="142" height="108" viewBox="0 0 142 108" fill="none" xmlns="http://www.w3.org/2000/svg">
<path d="M104 60.5L123 53" stroke="url(#paint0_linear_1439_13180)" stroke-width="13" stroke-linecap="round" stroke-linejoin="round"/>
<circle cx="63" cy="60.0033" r="47" fill="#FDECEF"/>
<circle cx="49" cy="55.0033" r="12" fill="#F9C6D0"/>
<circle cx="87" cy="55.0033" r="12" fill="#F9C6D0"/>
<path fill-rule="evenodd" clip-rule="evenodd" d="M64.8505 43.3609C65.1263 43.441 65.3149 43.6968 65.2997 43.9835V43.9835C65.051 48.6713 62.8375 52.3648 60.3557 52.2332C57.8739 52.1015 56.0636 48.1945 56.3123 43.5067C56.3392 43.0008 56.3889 42.5064 56.4594 42.0272C56.5435 41.4552 57.1221 41.1138 57.6772 41.2752L64.8505 43.3609Z" fill="#1A1B1E"/>
<path fill-rule="evenodd" clip-rule="evenodd" d="M70.5557 43.3609C70.28 43.441 70.0914 43.6968 70.1066 43.9835V43.9835C70.3553 48.6713 72.5688 52.3648 75.0506 52.2332C77.5324 52.1015 79.3426 48.1945 79.0939 43.5067C79.0671 43.0008 79.0174 42.5064 78.9469 42.0272C78.8628 41.4552 78.2841 41.1138 77.729 41.2752L70.5557 43.3609Z" fill="#1A1B1E"/>
<path d="M31.1932 7.25502C31.1448 6.43621 32.0485 5.91061 32.7363 6.35752L46.6235 15.3812C47.2484 15.7873 47.2256 16.7095 46.5814 17.0842L33.6709 24.5931C33.0267 24.9678 32.2138 24.5316 32.1698 23.7877L31.1932 7.25502Z" fill="#EB4869"/>
<g clip-path="url(#clip0_1439_13180)">
<path d="M102.615 85H131.394C134.171 85 135.906 82.0696 134.513 79.7302L121.345 57.5106V46.7879C122.302 46.5798 123.003 45.6973 122.875 44.6733C122.755 43.691 121.815 42.9917 120.798 42.9917H113.219C112.202 42.9917 111.262 43.691 111.142 44.6733C111.014 45.6973 111.715 46.5798 112.672 46.7879V57.5023L99.4871 79.7302C98.1028 82.0696 99.8374 85 102.606 85H102.615Z" fill="#F4F4F4"/>
<path d="M119.858 62.7637H114.15L104.751 78.6147C104.161 79.6137 104.896 80.8624 106.084 80.8624H127.916C129.104 80.8624 129.839 79.6137 129.249 78.6147L119.858 62.7637V62.7637Z" fill="#F27187"/>
<g style="mix-blend-mode:multiply" opacity="0.34">
<path d="M127.079 74.9599C120.2 78.5814 112.8 80.1465 104.588 79.239C104.58 79.239 104.571 79.239 104.554 79.239C104.477 80.0715 105.127 80.8624 106.075 80.8624H127.908C129.095 80.8624 129.83 79.6137 129.241 78.6147L127.07 74.9599H127.079Z" fill="#F27187"/>
</g>
<path d="M115.979 59.5169C116.54 59.5169 116.996 59.0734 116.996 58.5263C116.996 57.9791 116.54 57.5356 115.979 57.5356C115.417 57.5356 114.962 57.9791 114.962 58.5263C114.962 59.0734 115.417 59.5169 115.979 59.5169Z" fill="#D75F75"/>
<path d="M119.046 53.6644C119.046 54.4137 118.423 55.0214 117.654 55.0214C116.885 55.0214 116.261 54.4137 116.261 53.6644C116.261 52.9152 116.885 52.3074 117.654 52.3074C118.423 52.3074 119.046 52.9152 119.046 53.6644V53.6644Z" fill="#D75F75"/>
<path d="M113.193 77.266C114.246 77.266 115.099 76.4348 115.099 75.4095C115.099 74.3842 114.246 73.553 113.193 73.553C112.141 73.553 111.288 74.3842 111.288 75.4095C111.288 76.4348 112.141 77.266 113.193 77.266Z" fill="#D75F75"/>
<path d="M116.466 69.3905C116.466 70.1647 115.825 70.7891 115.03 70.7891C114.236 70.7891 113.595 70.1647 113.595 69.3905C113.595 68.6162 114.236 67.9919 115.03 67.9919C115.825 67.9919 116.466 68.6162 116.466 69.3905V69.3905Z" fill="#D75F75"/>
<path d="M122.892 73.7445C122.892 74.5187 122.251 75.1431 121.456 75.1431C120.662 75.1431 120.021 74.5187 120.021 73.7445C120.021 72.9703 120.662 72.3459 121.456 72.3459C122.251 72.3459 122.892 72.9703 122.892 73.7445Z" fill="#D75F75"/>
</g>
<path d="M30 61.5L11 54" stroke="url(#paint1_linear_1439_13180)" stroke-width="13" stroke-linecap="round" stroke-linejoin="round"/>
<g clip-path="url(#clip1_1439_13180)">
<path d="M19.2414 66.5415V38.8088C20.0989 38.617 20.7454 37.85 20.7454 36.9308C20.7454 35.8662 19.8813 35 18.8193 35H11.1741C10.1121 35 9.24802 35.8662 9.24802 36.9308C9.24802 37.85 9.89446 38.617 10.752 38.8088V66.5415C4.53826 68.3797 0 74.1392 0 80.9633C0 89.2685 6.71504 96 15 96C23.285 96 30 89.2685 30 80.9633C30 74.1326 25.4617 68.3731 19.2414 66.5415V66.5415Z" fill="#F4F4F4"/>
<path d="M20.2242 78.0273C17.7704 78.2058 15.3826 77.5115 13.0541 76.8172C10.6926 76.1163 8.27173 75.2699 5.78493 75.217C5.42873 75.2104 5.09231 75.2302 4.7559 75.2699C3.70049 77.0487 3.08704 79.1184 3.08704 81.3402C3.08704 87.9328 8.41685 93.2757 14.9934 93.2757C21.5699 93.2757 26.8997 87.9328 26.8997 81.3402C26.8997 79.4358 26.4446 77.6438 25.653 76.0436C24.0501 77.1677 22.2229 77.8818 20.2176 78.0273H20.2242Z" fill="#FCA644"/>
<g style="mix-blend-mode:multiply" opacity="0.3">
<path d="M13.3905 90.3794C11.1939 90.5778 9.05672 90.4852 6.97888 90.1546C9.0963 92.092 11.9063 93.2757 15 93.2757C19.558 93.2757 23.5158 90.7034 25.5145 86.9343C21.9591 89.0305 17.4274 90.0157 13.3905 90.3728V90.3794Z" fill="#FCA644"/>
</g>
<path d="M10.4024 81.1815C10.4024 82.0477 9.70321 82.7552 8.83249 82.7552C7.96178 82.7552 7.26257 82.0543 7.26257 81.1815C7.26257 80.3086 7.96178 79.6077 8.83249 79.6077C9.70321 79.6077 10.4024 80.3086 10.4024 81.1815Z" fill="#FCEDB9"/>
<path d="M14.4987 88.9776C15.0925 88.9776 15.5739 88.495 15.5739 87.8997C15.5739 87.3045 15.0925 86.8219 14.4987 86.8219C13.9048 86.8219 13.4235 87.3045 13.4235 87.8997C13.4235 88.495 13.9048 88.9776 14.4987 88.9776Z" fill="#FCEDB9"/>
<path d="M21.2072 83.0859C21.2072 83.681 20.7256 84.1637 20.132 84.1637C19.5383 84.1637 19.0568 83.681 19.0568 83.0859C19.0568 82.4907 19.5383 82.008 20.132 82.008C20.7256 82.008 21.2072 82.4907 21.2072 83.0859Z" fill="#FCEDB9"/>
<path d="M18.7928 75.8518C19.3867 75.8518 19.868 75.3693 19.868 74.774C19.868 74.1787 19.3867 73.6962 18.7928 73.6962C18.199 73.6962 17.7177 74.1787 17.7177 74.774C17.7177 75.3693 18.199 75.8518 18.7928 75.8518Z" fill="#FCA644"/>
<path d="M14.4987 70.952C15.333 70.952 16.0093 70.274 16.0093 69.4377C16.0093 68.6014 15.333 67.9235 14.4987 67.9235C13.6645 67.9235 12.9882 68.6014 12.9882 69.4377C12.9882 70.274 13.6645 70.952 14.4987 70.952Z" fill="#FCA644"/>
</g>
<defs>
<linearGradient id="paint0_linear_1439_13180" x1="103" y1="61" x2="129" y2="50.5" gradientUnits="userSpaceOnUse">
<stop stop-color="#FDECEF"/>
<stop offset="1" stop-color="#F9C6D0"/>
</linearGradient>
<linearGradient id="paint1_linear_1439_13180" x1="31" y1="62" x2="5" y2="51.5" gradientUnits="userSpaceOnUse">
<stop stop-color="#FDECEF"/>
<stop offset="1" stop-color="#F9C6D0"/>
</linearGradient>
<clipPath id="clip0_1439_13180">
<rect width="36" height="42" fill="white" transform="translate(99 43)"/>
</clipPath>
<clipPath id="clip1_1439_13180">
<rect width="30" height="61" fill="white" transform="translate(0 35)"/>
</clipPath>
</defs>
</svg>
