<svg width="157" height="115" viewBox="0 0 157 115" fill="none" xmlns="http://www.w3.org/2000/svg">
<g clip-path="url(#clip0_1439_13188)">
<path d="M110.7 21.2256L117.323 0.362452L116.986 0.255271L110.356 21.1458C110.46 21.1607 110.568 21.1837 110.683 21.2203C110.692 21.223 110.696 21.2243 110.701 21.2283L110.7 21.2256Z" fill="#DCDEE0"/>
<path d="M110.683 21.2203C110.568 21.1837 110.46 21.1607 110.356 21.1458C109.519 21.0156 109.105 21.4949 109.105 21.4949L105.787 31.9484L107.161 32.385L110.162 22.9267L110.701 21.2283C110.701 21.2283 110.689 21.2244 110.683 21.2203V21.2203Z" fill="#ABAFB2"/>
<path d="M105.786 31.9457L98.9031 29.7576L85.6349 71.5674L92.4602 73.7372L94.3226 67.8757L88.8089 66.1229L89.6506 63.4705L89.6657 63.473L99.79 31.5629L105.349 33.3301L106.722 33.7667L107.159 32.3823L105.786 31.9457Z" fill="#DCDEE0"/>
<path d="M105.349 33.3301L99.7899 31.5629L89.6656 63.473L96.5937 65.6755L105.948 36.1985L106.722 33.7667L105.349 33.3301Z" fill="#EF4836"/>
<path d="M91.5142 76.7254L83.2481 102.773L76.0075 100.471L75.163 103.125L83.8345 105.881L84.2052 104.72L84.679 103.228L92.945 77.1803L91.5142 76.7254Z" fill="#4D4D4D"/>
<path d="M89.6657 63.473L89.6507 63.4705L88.8089 66.1229L94.3226 67.8757L92.4603 73.7372L93.8911 74.192L95.7535 68.3306L96.3147 66.5623L96.4138 66.243L96.5938 65.6755L89.6657 63.473Z" fill="#4D4D4D"/>
<path d="M92.4603 73.7372L85.6349 71.5674L81.9016 70.3805L80.9555 73.3688L91.5142 76.7254L92.9451 77.1803L93.7529 74.6348L93.8911 74.192L92.4603 73.7372Z" fill="#ABAFB2"/>
<path d="M111.099 21.3933L117.734 0.493164L117.323 0.362454L110.701 21.2283C110.851 21.2781 110.982 21.3335 111.101 21.396L111.099 21.3933Z" fill="#DCDEE0"/>
<path d="M111.099 21.3933C110.985 21.3321 110.852 21.2739 110.7 21.2256L110.161 22.924L107.159 32.3823L108.607 32.8424L111.924 22.3889C111.924 22.3889 111.847 21.7895 111.099 21.3933V21.3933Z" fill="#ABAFB2"/>
<path d="M108.607 32.8424L107.159 32.3823L106.722 33.7667L108.17 34.2268L113.724 35.9927L103.6 67.9028L103.612 67.9067L102.769 70.5632L97.1843 68.7855L95.3219 74.6469L102.223 76.8429L115.491 35.0331L108.607 32.8424Z" fill="#DCDEE0"/>
<path d="M108.17 34.2268L106.722 33.7667L105.948 36.1985L96.5938 65.6755L103.6 67.9028L113.724 35.9927L108.17 34.2268Z" fill="#EF4836"/>
<path d="M86.1098 103.682L94.3758 77.6352L92.945 77.1803L84.6789 103.228L84.2052 104.72L83.8345 105.881L92.5265 108.645L93.3682 105.992L86.1098 103.682Z" fill="#4D4D4D"/>
<path d="M103.6 67.9028L96.5938 65.6755L96.4137 66.243L96.3147 66.5623L95.7535 68.3306L93.8911 74.1921L95.322 74.6469L97.1843 68.7855L102.769 70.5632L103.612 67.9067L103.6 67.9028Z" fill="#4D4D4D"/>
<path d="M102.223 76.843L95.3219 74.6469L93.8911 74.1921L93.7528 74.6348L92.945 77.1803L94.3759 77.6352L105.009 81.0153L105.955 78.0271L102.223 76.843Z" fill="#ABAFB2"/>
<path d="M106.109 35.6998L105.916 36.3076L111.862 38.1977L112.054 37.5899L106.109 35.6998Z" fill="white"/>
<path d="M105.056 39.0192L104.863 39.6269L110.809 41.517L111.002 40.9093L105.056 39.0192Z" fill="white"/>
<path d="M104.003 42.3386L103.811 42.9463L109.756 44.8364L109.949 44.2287L104.003 42.3386Z" fill="white"/>
<path d="M102.949 45.6552L102.756 46.2629L108.702 48.153L108.895 47.5453L102.949 45.6552Z" fill="white"/>
<path d="M101.896 48.9746L101.704 49.5823L107.649 51.4724L107.842 50.8647L101.896 48.9746Z" fill="white"/>
<path d="M100.841 52.293L100.648 52.9008L106.594 54.7909L106.786 54.1831L100.841 52.293Z" fill="white"/>
<path d="M99.7878 55.6124L99.595 56.2201L105.541 58.1102L105.733 57.5025L99.7878 55.6124Z" fill="white"/>
<path d="M98.7351 58.9317L98.5422 59.5395L104.488 61.4296L104.681 60.8218L98.7351 58.9317Z" fill="white"/>
<path d="M97.6809 62.2484L97.488 62.8561L103.434 64.7462L103.626 64.1385L97.6809 62.2484Z" fill="white"/>
</g>
<circle cx="47" cy="64.0033" r="47" fill="#E9F0FE"/>
<circle cx="33" cy="59.0033" r="12" fill="#CFDDFD"/>
<circle cx="71" cy="59.0033" r="12" fill="#CFDDFD"/>
<path d="M15.1932 11.255C15.1448 10.4362 16.0485 9.91062 16.7363 10.3575L30.6235 19.3812C31.2484 19.7873 31.2256 20.7095 30.5814 21.0842L17.6709 28.5931C17.0267 28.9678 16.2138 28.5316 16.1698 27.7877L15.1932 11.255Z" fill="#749DF8"/>
<ellipse cx="44.3726" cy="54.7342" rx="3.87337" ry="4.53523" transform="rotate(-3.04 44.3726 54.7342)" fill="#1A1B1E"/>
<ellipse cx="60.1086" cy="54.7342" rx="3.87337" ry="4.53523" transform="rotate(2.96 60.1086 54.7342)" fill="#1A1B1E"/>
<g clip-path="url(#clip1_1439_13188)">
<path d="M71.2054 29C58.5716 26.0687 45.4284 26.0687 32.7946 29C30.2474 22.6341 27.6471 16.3863 25 10.2665C42.5481 4.57863 61.4519 4.57863 79 10.2665C76.3529 16.3863 73.7526 22.6341 71.2054 29V29Z" fill="#F4F4F4"/>
<path d="M50.4402 21.5708V18.3651H47.2281V15.2541H50.4402V12.0484H53.5598V15.2541H56.7719V18.3651H53.5598V21.5708H50.4402Z" fill="#D84836"/>
</g>
<defs>
<clipPath id="clip0_1439_13188">
<rect width="85" height="85" fill="white" transform="translate(42 39.0891) rotate(-27.3789)"/>
</clipPath>
<clipPath id="clip1_1439_13188">
<rect width="54" height="23" fill="white" transform="translate(25 5.99998)"/>
</clipPath>
</defs>
</svg>
