<svg width="162" height="111" viewBox="0 0 162 111" fill="none" xmlns="http://www.w3.org/2000/svg">
<path d="M131.162 91.3827H116.85V94.4444H131.162V91.3827Z" fill="#652E1D"/>
<path fill-rule="evenodd" clip-rule="evenodd" d="M120.223 74.642H123.976L133.48 110H137.282L127.777 74.642H123.976L114.52 110H110.719L120.223 74.642Z" fill="#743725"/>
<path d="M158 21H90V72H158V21Z" fill="#83422D"/>
<path d="M155 23H93V70H155V23Z" fill="#EAEBEB"/>
<path d="M162 72H86V75H162V72Z" fill="#652E1D"/>
<path d="M162 18H86V21H162V18Z" fill="#652E1D"/>
<path d="M155 70H93V72H155V70Z" fill="#743725"/>
<path d="M125.668 14H122.332V18.4568H125.668V14Z" fill="#83422D"/>
<path d="M125.876 74.642H122.124V110H125.876V74.642Z" fill="#83422D"/>
<circle cx="61" cy="63.0033" r="47" fill="#FFFBE8"/>
<circle cx="47" cy="58.0033" r="12" fill="#FFF2BD"/>
<circle cx="85" cy="58.0033" r="12" fill="#FFF2BD"/>
<ellipse cx="58.3726" cy="50.7375" rx="3.87337" ry="4.53523" transform="rotate(-3.04 58.3726 50.7375)" fill="#1A1B1E"/>
<ellipse cx="74.1086" cy="50.7375" rx="3.87337" ry="4.53523" transform="rotate(2.96 74.1086 50.7375)" fill="#1A1B1E"/>
<g clip-path="url(#clip0_1439_13191)">
<path fill-rule="evenodd" clip-rule="evenodd" d="M31.6732 83.6839C20.784 78.2532 2.66375 73.4014 0.0179501 74.975C0.826748 77.9474 17.1861 87.1196 28.7821 90.8062C28.5194 90.7261 28.2331 90.6291 27.9704 90.549L30.91 83.3147C31.1636 83.4327 31.4197 83.5659 31.6681 83.6848L31.6732 83.6839Z" fill="#FFE57B"/>
<path fill-rule="evenodd" clip-rule="evenodd" d="M39.5555 89.5349C38.5295 87.5803 35.211 85.3904 30.9101 83.3147L27.9705 90.549C32.4964 92.052 36.4122 92.8018 38.5064 92.1103L39.5563 89.54L39.5555 89.5349Z" fill="#F4F4F4"/>
<path fill-rule="evenodd" clip-rule="evenodd" d="M26.9052 90.1737L29.8976 82.8215C29.9503 82.7036 30.1008 82.6418 30.2338 82.692L30.7914 82.9195C30.9244 82.9697 30.9862 83.1202 30.9209 83.2558L27.9487 90.6046C27.896 90.7225 27.7481 90.7994 27.6125 90.7341L27.0549 90.5065C26.9219 90.4564 26.8601 90.3059 26.9103 90.1729L26.9052 90.1737Z" fill="#E5CE6F"/>
<path fill-rule="evenodd" clip-rule="evenodd" d="M39.0259 90.8235C38.8636 91.2454 38.6888 91.685 38.5114 92.1095C41.788 98.6872 47.5155 96.6444 50.9833 93.2708C46.279 92.8308 46.0215 86.3343 39.5613 89.5391C39.3839 89.9636 39.2091 90.4032 39.0267 90.8285L39.0259 90.8235Z" fill="#83422D"/>
</g>
<path d="M24.9136 63.5665L16 81.9457" stroke="url(#paint0_linear_1439_13191)" stroke-width="13" stroke-linecap="round" stroke-linejoin="round"/>
<rect x="15.9276" y="33.3112" width="52.6718" height="8.2959" rx="1" transform="rotate(-27.4102 15.9276 33.3112)" fill="#E5CE6F"/>
<path d="M21.8021 37.1431C14.3449 40.8353 12.8898 37.0944 13.0944 34.7625C13.2571 27.3188 24.6516 12.2351 33.5793 4.54481C42.507 -3.14547 63.129 2.56201 66.739 6.14549C70.349 9.72897 64.8362 16.7106 53.1491 21.1912C40.5803 26.0099 31.1237 32.528 21.8021 37.1431Z" fill="#FFE57B"/>
<defs>
<linearGradient id="paint0_linear_1439_13191" x1="25.4877" y1="62.6071" x2="13.0539" y2="87.7398" gradientUnits="userSpaceOnUse">
<stop stop-color="#FFFBE8"/>
<stop offset="1" stop-color="#FFF2BD"/>
</linearGradient>
<clipPath id="clip0_1439_13191">
<rect width="28.7419" height="47.2021" fill="white" transform="translate(4.79163 103.209) rotate(-99.5967)"/>
</clipPath>
</defs>
</svg>
