<svg width="123" height="108" viewBox="0 0 123 108" fill="none" xmlns="http://www.w3.org/2000/svg">
<g clip-path="url(#clip0_1439_13189)">
<path fill-rule="evenodd" clip-rule="evenodd" d="M109.741 31.6797C109.703 33.1824 109.661 34.6657 109.644 36.1706C109.285 36.5287 108.92 36.8947 108.561 37.2529C107.433 35.6351 107.917 35.8064 106.043 36.3645C105.998 35.8582 105.936 35.3627 105.866 34.8348C106.764 33.6508 107.658 32.4473 108.538 31.2741C109.086 31.0098 109.469 31.1831 109.742 31.6862V31.6862L109.741 31.6797Z" fill="#40484C"/>
<path fill-rule="evenodd" clip-rule="evenodd" d="M96.482 50.4525L97.2009 43.4398L105.854 34.8103C106.331 35.2886 106.942 35.6421 107.606 35.8957C108.283 36.1191 108.976 36.2031 109.644 36.1706L111.112 48.3292L107.371 54.2801L96.4885 50.4511L96.482 50.4525Z" fill="#D1B49F"/>
<path fill-rule="evenodd" clip-rule="evenodd" d="M99.0805 51.7035L100.708 44.6795L106.643 35.4165C106.942 35.6083 107.254 35.7699 107.607 35.9022C107.956 36.015 108.299 36.1019 108.658 36.1378L107.633 47.1241L104.667 53.3447L99.0755 51.7114L99.0805 51.7035Z" fill="#EBCBB5"/>
<path fill-rule="evenodd" clip-rule="evenodd" d="M87.4183 97.2438L85.7245 96.6345C82.3742 95.4619 80.5975 91.7398 81.7536 88.3726L82.5148 86.1457L96.375 91.0193L95.6138 93.2462C94.4513 96.6148 90.7686 98.4163 87.4183 97.2438Z" fill="#FBC800"/>
<path fill-rule="evenodd" clip-rule="evenodd" d="M95.5691 82.1507L88.6139 79.6923L100.581 44.9316C100.631 44.8526 100.686 44.7657 100.713 44.6716C99.5352 48.0639 106.531 50.3707 107.643 47.1083C107.618 47.209 107.587 47.2837 107.562 47.3843L95.5691 82.1507Z" fill="#80D7DE"/>
<path fill-rule="evenodd" clip-rule="evenodd" d="M85.1636 78.4944L88.614 79.6923L100.582 44.9316C100.176 45.721 99.2332 46.0932 98.3774 45.7939C97.4215 45.4693 96.9109 44.4142 97.2309 43.4535L85.1636 78.4944Z" fill="#63AFB7"/>
<path fill-rule="evenodd" clip-rule="evenodd" d="M95.5691 82.1507L99.0252 83.3745L111.112 48.3292C110.766 49.2957 109.719 49.8064 108.759 49.4624C107.903 49.1631 107.401 48.2691 107.557 47.3922L95.5691 82.1507Z" fill="#63AFB7"/>
<path fill-rule="evenodd" clip-rule="evenodd" d="M99.0188 83.3759L85.165 78.5009C84.9605 78.4308 84.7562 78.544 84.6814 78.7236L84.4818 79.2841C84.4126 79.4896 84.5301 79.7149 84.7302 79.7656C84.5301 79.7149 84.3214 79.8087 84.2523 80.0142L84.0527 80.5747C83.9836 80.7802 84.0967 80.9861 84.2754 81.0619C84.0967 80.9861 83.8624 81.0856 83.8111 81.2803L83.6115 81.8408C83.5424 82.0463 83.6555 82.2522 83.8342 82.328C83.6555 82.2522 83.4254 82.3711 83.3756 82.5723L83.176 83.1328C83.1069 83.3383 83.2007 83.5484 83.3987 83.62C83.1943 83.5499 82.9857 83.6437 82.9151 83.8427L82.7348 84.3989C82.6656 84.6044 82.7595 84.8145 82.9575 84.8861C82.753 84.816 82.5487 84.9292 82.4739 85.1088L82.2979 85.6844C82.223 85.8641 82.3226 86.1001 82.5163 86.1522L96.3751 91.0193C96.5796 91.0894 96.7882 90.9956 96.8588 90.7966L97.0584 90.2361C97.1275 90.0306 97.0144 89.8248 96.8356 89.7489C97.0144 89.8248 97.2444 89.7058 97.2942 89.5046L97.4938 88.9441C97.5687 88.7645 97.4498 88.5327 97.2711 88.4569C97.4498 88.5327 97.6842 88.4332 97.7355 88.2385L97.9351 87.678C98.0042 87.4725 97.9104 87.2624 97.7123 87.1908C97.9168 87.2609 98.1211 87.1477 98.196 86.9681L98.372 86.3925C98.4468 86.2129 98.3473 85.9768 98.1535 85.9247C98.3537 85.9754 98.5623 85.8816 98.6315 85.6761L98.8118 85.1199C98.8809 84.9144 98.7871 84.7043 98.589 84.6327C98.7935 84.7028 99.0021 84.609 99.0727 84.41L99.2723 83.8495C99.3221 83.6483 99.2283 83.4381 99.0238 83.368L99.0188 83.3759Z" fill="#40484C"/>
<path fill-rule="evenodd" clip-rule="evenodd" d="M84.4798 79.4883C84.51 79.6243 84.5987 79.7201 84.7288 79.7591C84.6051 79.7186 84.4508 79.7529 84.3494 79.8433L98.8266 84.9129C98.8022 84.8028 98.7078 84.6811 98.5776 84.642C98.7013 84.6825 98.8364 84.6526 98.9357 84.583L84.4734 79.4897L84.4798 79.4883ZM84.0386 80.7544C84.0688 80.8904 84.1425 81.0099 84.2676 81.0568C84.1439 81.0164 84.0089 81.0463 83.9096 81.1159L98.3911 86.2049C98.361 86.0689 98.2723 85.9731 98.1422 85.934C98.2658 85.9745 98.4009 85.9446 98.4959 85.8556L84.0336 80.7623L84.0386 80.7544ZM83.6031 82.0464C83.6082 82.1608 83.7027 82.2825 83.8264 82.323C83.7027 82.2825 83.5677 82.3124 83.4727 82.4014L97.9499 87.471C97.9255 87.3609 97.831 87.2392 97.7009 87.2001C97.8246 87.2406 97.9597 87.2107 98.059 87.1411L83.5967 82.0479L83.6031 82.0464ZM83.1426 83.3168C83.1728 83.4528 83.2615 83.5486 83.3973 83.6135C83.2679 83.5471 83.1329 83.5771 83.0393 83.6725L97.5209 88.7615C97.4907 88.6256 97.402 88.5298 97.2661 88.4648C97.3956 88.5312 97.5306 88.5013 97.6242 88.4058L83.1426 83.3168V83.3168ZM82.7071 84.6088C82.7315 84.7189 82.826 84.8406 82.9561 84.8796C82.8324 84.8391 82.6974 84.8691 82.5981 84.9387L97.0603 90.0319C97.0359 89.9219 96.9608 89.7959 96.8371 89.7554C96.9608 89.7959 97.0958 89.766 97.1951 89.6964L82.7136 84.6074L82.7071 84.6088Z" fill="#565D62"/>
</g>
<circle cx="47" cy="60.0033" r="47" fill="#E9F0FE"/>
<circle cx="33" cy="55.0033" r="12" fill="#CFDDFD"/>
<circle cx="71" cy="55.0033" r="12" fill="#CFDDFD"/>
<path d="M15.1932 7.25502C15.1448 6.43621 16.0485 5.91061 16.7363 6.35752L30.6235 15.3812C31.2484 15.7873 31.2256 16.7095 30.5814 17.0842L17.6709 24.5931C17.0267 24.9678 16.2138 24.5316 16.1698 23.7877L15.1932 7.25502Z" fill="#749DF8"/>
<path fill-rule="evenodd" clip-rule="evenodd" d="M58.5058 46C58.2282 46 58 46.2205 58 46.4981V46.4981C58 51.1926 60.0147 54.9981 62.5 54.9981C64.9853 54.9981 67 51.1926 67 46.4981V46.4981C67 46.2205 66.7718 46 66.4942 46H58.5058Z" fill="#1A1B1E"/>
<path fill-rule="evenodd" clip-rule="evenodd" d="M37.5058 46C37.2282 46 37 46.2205 37 46.4981V46.4981C37 51.1926 39.0147 54.9981 41.5 54.9981C43.9853 54.9981 46 51.1926 46 46.4981V46.4981C46 46.2205 45.7718 46 45.4942 46H37.5058Z" fill="#1A1B1E"/>
<path fill-rule="evenodd" clip-rule="evenodd" d="M49.771 50.3264C49.771 56.0296 45.1535 60.6529 39.4576 60.6529C33.7616 60.6529 29.1442 56.0296 29.1442 50.3264C29.1442 44.6233 33.7616 40 39.4576 40C45.1535 40 49.771 44.6233 49.771 50.3264ZM48.1281 50.3264C48.1281 55.1211 44.2462 59.0079 39.4576 59.0079C34.669 59.0079 30.7871 55.1211 30.7871 50.3264C30.7871 45.5318 34.669 41.645 39.4576 41.645C44.2462 41.645 48.1281 45.5318 48.1281 50.3264Z" fill="#1A1B1E"/>
<path fill-rule="evenodd" clip-rule="evenodd" d="M74.8559 50.3264C74.8559 56.0296 70.2384 60.6529 64.5424 60.6529C58.8465 60.6529 54.229 56.0296 54.229 50.3264C54.229 44.6233 58.8465 40 64.5424 40C70.2384 40 74.8559 44.6233 74.8559 50.3264ZM73.213 50.3264C73.213 55.1211 69.3311 59.0079 64.5425 59.0079C59.7539 59.0079 55.872 55.1211 55.872 50.3264C55.872 45.5318 59.7539 41.645 64.5425 41.645C69.3311 41.645 73.213 45.5318 73.213 50.3264Z" fill="#1A1B1E"/>
<path fill-rule="evenodd" clip-rule="evenodd" d="M30.3818 48.9211C29.6984 49.0232 29.1738 49.6133 29.1738 50.3264C29.1738 51.0391 29.698 51.6296 30.3818 51.7318C30.3128 51.7421 30.2423 51.7474 30.1705 51.7474H28.4192C27.6351 51.7474 27 51.1109 27 50.3264C27 49.5414 27.6358 48.9055 28.4192 48.9055H30.1705C30.2423 48.9055 30.3129 48.9108 30.3818 48.9211Z" fill="#1A1B1E"/>
<path fill-rule="evenodd" clip-rule="evenodd" d="M73.1959 51.5982C73.6615 51.3652 73.9814 50.8833 73.9814 50.3264C73.9814 49.7699 73.6617 49.2878 73.196 49.0547C73.3868 48.9592 73.602 48.9055 73.8297 48.9055H75.5811C76.3651 48.9055 77.0002 49.542 77.0002 50.3264C77.0002 51.1115 76.3645 51.7474 75.5811 51.7474H73.8297C73.6019 51.7474 73.3867 51.6937 73.1959 51.5982Z" fill="#1A1B1E"/>
<path fill-rule="evenodd" clip-rule="evenodd" d="M55.5883 50.1245C53.3434 47.4637 51.167 47.2727 48.9319 49.5514L48.3381 48.1936C48.2988 48.1038 48.2515 48.0201 48.1974 47.9429C50.5877 45.7894 53.7589 45.8784 56.0846 48.21C56.0836 48.2136 56.0826 48.2173 56.0816 48.2209L55.6283 49.9126C55.6094 49.9832 55.5962 50.054 55.5883 50.1245Z" fill="#1A1B1E"/>
<defs>
<clipPath id="clip0_1439_13189">
<rect width="40.552" height="60.828" fill="white" transform="translate(122.759 90.3855) rotate(167.497)"/>
</clipPath>
</defs>
</svg>
