<svg width="162" height="131" viewBox="0 0 162 131" fill="none" xmlns="http://www.w3.org/2000/svg">
<path d="M104 81.3094L122.748 89.4196" stroke="url(#paint0_linear_1439_13190)" stroke-width="13" stroke-linecap="round" stroke-linejoin="round"/>
<circle cx="73" cy="83.0033" r="47" fill="#FFFBE8"/>
<circle cx="59" cy="78.0033" r="12" fill="#FFF2BD"/>
<circle cx="97" cy="78.0033" r="12" fill="#FFF2BD"/>
<ellipse cx="70.3726" cy="70.7375" rx="3.87337" ry="4.53523" transform="rotate(-3.04 70.3726 70.7375)" fill="#1A1B1E"/>
<ellipse cx="86.1086" cy="70.7375" rx="3.87337" ry="4.53523" transform="rotate(2.96 86.1086 70.7375)" fill="#1A1B1E"/>
<path d="M41.1932 30.255C41.1448 29.4362 42.0485 28.9106 42.7363 29.3576L56.6235 38.3813C57.2484 38.7873 57.2256 39.7096 56.5814 40.0842L43.6709 47.5931C43.0267 47.9678 42.2138 47.5316 42.1698 46.7877L41.1932 30.255Z" fill="#FFE57B"/>
<g clip-path="url(#clip0_1439_13190)">
<path d="M152.373 2.56086L153.882 3.16251L151.982 3.37766L153.746 4.04243L153.751 4.04371L151.86 4.25919L153.624 4.92396L153.617 4.92226L151.726 5.13774L153.49 5.80251L153.497 5.80421L151.607 6.0197L153.364 6.68097L151.464 6.89612L153.228 7.56089L153.233 7.56217L151.342 7.77765L153.106 8.44242L153.117 8.44497L151.226 8.66046L152.99 9.32523L152.997 9.32693L151.106 9.54242L152.864 10.2037L150.964 10.4188L152.728 11.0836L152.733 11.0849L150.842 11.3004L152.606 11.9651L152.599 11.9634L150.708 12.1789L152.472 12.8437L152.479 12.8454L150.589 13.0609L152.346 13.7221L150.446 13.9373L152.21 14.6021L152.215 14.6033L150.324 14.8188L152.088 15.4836L152.092 15.4844L150.201 15.6999L151.965 16.3647L151.972 16.3664L150.081 16.5819L151.839 17.2432L149.939 17.4583L151.703 18.1231L151.708 18.1244L149.817 18.3398L151.581 19.0046L151.574 19.0029L149.683 19.2184L151.447 19.8832L151.454 19.8849L149.564 20.1003L151.321 20.7616L149.421 20.9768L151.185 21.6415L151.19 21.6428L149.299 21.8583L151.063 22.5231L151.074 22.5256L149.183 22.7411L150.947 23.4059L150.954 23.4076L149.064 23.6231L150.821 24.2843L148.921 24.4995L150.685 25.1643L150.69 25.1655L148.799 25.381L150.563 26.0458L150.556 26.0441L148.666 26.2596L150.43 26.9243L150.437 26.926L148.546 27.1415L150.303 27.8028L148.403 28.0179L150.167 28.6827L150.172 28.684L148.282 28.8995L150.046 29.5642L150.067 29.5694L148.176 29.7848L149.94 30.4496L149.947 30.4513L148.056 30.6668L149.814 31.3281L147.914 31.5432L149.678 32.208L149.683 32.2093L147.792 32.4247L149.556 33.0895L149.549 33.0878L147.658 33.3033L149.422 33.9681L149.429 33.9698L147.539 34.1853L149.296 34.8465L147.396 35.0617L149.16 35.7264L149.165 35.7277L147.274 35.9432L149.038 36.608L149.049 36.6105L147.158 36.826L148.922 37.4908L148.929 37.4925L147.039 37.708L148.796 38.3692L146.896 38.5844L148.66 39.2492L148.665 39.2504L146.774 39.4659L148.538 40.1307L148.531 40.129L146.64 40.3445L148.404 41.0092L148.412 41.0109L146.521 41.2264L148.278 41.8877L146.378 42.1028L148.142 42.7676L148.147 42.7689L146.257 42.9844L148.021 43.6491L148.024 43.65L146.133 43.8655L147.897 44.5302L147.904 44.532L146.014 44.7474L147.771 45.4087L145.871 45.6239L147.635 46.2886L147.64 46.2899L145.749 46.5054L147.513 47.1702L147.506 47.1685L145.616 47.3839L147.38 48.0487L147.387 48.0504L145.496 48.2659L147.253 48.9272L145.353 49.1423L147.117 49.8071L147.122 49.8084L145.232 50.0238L146.996 50.6886L147.006 50.6912L145.115 50.9067L146.879 51.5714L146.887 51.5731L144.996 51.7886L146.753 52.4499L144.853 52.665L146.617 53.3298L146.622 53.3311L144.732 53.5466L146.496 54.2113L146.488 54.2096L144.598 54.4251L146.362 55.0899L146.369 55.0916L144.478 55.3071L146.235 55.9683L144.335 56.1835L146.099 56.8483L146.105 56.8495L144.214 57.065L145.978 57.7298L144.091 57.9461L145.855 58.6109L145.862 58.6126L143.971 58.8281L145.728 59.4894L143.828 59.7045L145.592 60.3693L145.597 60.3705L143.707 60.586L145.471 61.2508L145.464 61.2491L143.573 61.4646L145.337 62.1294L145.344 62.1311L143.453 62.3465L145.21 63.0078L143.31 63.223L145.074 63.8877L145.08 63.889L143.189 64.1045L144.953 64.7693L144.963 64.7718L143.073 64.9873L144.837 65.6521L144.844 65.6538L142.953 65.8693L144.71 66.5305L142.81 66.7457L144.574 67.4104L144.58 67.4117L142.689 67.6272L144.453 68.292L144.446 68.2903L142.555 68.5058L144.319 69.1705L144.326 69.1722L142.435 69.3877L144.193 70.049L142.292 70.2641L144.056 70.9289L144.062 70.9302L142.171 71.1457L143.935 71.8104L143.938 71.8113L142.048 72.0268L143.812 72.6915L143.819 72.6932L141.928 72.9087L143.685 73.57L141.785 73.7851L143.549 74.4499L143.555 74.4512L141.664 74.6667L143.428 75.3314L143.421 75.3297L141.53 75.5452L143.294 76.21L143.301 76.2117L141.41 76.4272L143.168 77.0885L141.267 77.3036L143.031 77.9684L143.037 77.9697L141.146 78.1851L142.91 78.8499L142.921 78.8525L141.03 79.068L142.794 79.7327L142.801 79.7344L140.91 79.9499L142.667 80.6112L141.273 80.7443L142.531 81.4929L142.536 81.4942L142.412 82.0101C142.343 82.2977 142.057 82.4743 141.775 82.4066L123.15 77.9372L140.533 5.50305L152.373 2.56086ZM144.933 11.0631C144.68 12.1201 145.074 13.1197 145.814 13.2973C146.554 13.4749 147.36 12.7613 147.613 11.706C147.866 10.6508 147.472 9.64938 146.732 9.47181C145.992 9.29425 145.187 10.0078 144.933 11.0631Z" fill="#878787"/>
<path d="M140.533 5.50304L148.669 3.48194L147.175 9.70732C147.047 9.59288 146.899 9.51184 146.732 9.47181C145.992 9.29425 145.187 10.0078 144.933 11.0631C144.68 12.1183 145.074 13.1197 145.814 13.2973C145.979 13.3369 146.149 13.3321 146.315 13.2883L136.166 80.7621L123.143 77.9696L140.533 5.50304V5.50304Z" fill="#706F6F"/>
<path d="M136.477 92.6679L124.535 89.7927C121.587 91.9997 120.182 89.6757 120.738 87.3585L123.626 75.323C123.806 74.5734 124.551 74.1097 125.291 74.2873L136.282 76.9248C136.905 77.0742 137.477 77.3883 137.938 77.8355L139.865 79.6991C141.513 81.2941 142.193 83.659 141.653 85.9097L139.849 93.4295C139.478 94.9719 137.338 95.7909 136.475 92.6675L136.477 92.6679ZM135.58 88.7016C136.59 88.9439 137.607 88.3115 137.852 87.2886L138.109 86.219C138.354 85.1961 137.735 84.1711 136.726 83.9288L127.463 81.706C126.453 81.4637 125.437 82.0962 125.191 83.119L124.934 84.1887C124.689 85.2116 125.308 86.2366 126.318 86.4789L135.579 88.7012L135.58 88.7016Z" fill="#F39200"/>
<path d="M136.477 92.6679L124.535 89.7927C121.587 91.9997 120.182 89.6757 120.738 87.3585L123.626 75.323C123.806 74.5734 124.551 74.1097 125.291 74.2873L136.282 76.9248C136.905 77.0742 137.477 77.3883 137.938 77.8355L139.865 79.6991C141.513 81.2941 142.193 83.659 141.653 85.9097L139.849 93.4295C139.478 94.9719 137.338 95.7909 136.475 92.6675L136.477 92.6679ZM135.58 88.7016C136.59 88.9439 137.607 88.3115 137.852 87.2886L138.109 86.219C138.354 85.1961 137.735 84.1711 136.726 83.9288L127.463 81.706C126.453 81.4637 125.437 82.0962 125.191 83.119L124.934 84.1887C124.689 85.2116 125.308 86.2366 126.318 86.4789L135.579 88.7012L135.58 88.7016Z" fill="#F39200"/>
<path d="M126.104 78.1515C126.384 78.2188 126.666 78.0432 126.734 77.7592C126.803 77.4751 126.631 77.1905 126.35 77.1232C126.07 77.056 125.788 77.2316 125.719 77.5156C125.651 77.7996 125.823 78.0842 126.104 78.1515Z" fill="#706F6F"/>
<path d="M126.424 77.966C126.435 77.9592 126.439 77.943 126.432 77.9319L126.061 77.3182C126.055 77.3071 126.039 77.3032 126.028 77.3101C126.017 77.317 126.013 77.3331 126.02 77.3442L126.39 77.9579C126.397 77.9691 126.413 77.9729 126.424 77.966V77.966Z" fill="#575756"/>
<path d="M125.9 77.8404C125.907 77.8515 125.923 77.8554 125.934 77.8485L126.543 77.4699C126.554 77.463 126.558 77.4468 126.551 77.4357C126.544 77.4246 126.529 77.4208 126.517 77.4276L125.909 77.8063C125.898 77.8131 125.894 77.8293 125.9 77.8404V77.8404Z" fill="#575756"/>
<path d="M130.694 79.2531C130.974 79.3204 131.257 79.1448 131.325 78.8607C131.393 78.5767 131.221 78.2921 130.941 78.2248C130.66 78.1575 130.378 78.3331 130.31 78.6172C130.242 78.9012 130.414 79.1858 130.694 79.2531Z" fill="#706F6F"/>
<path d="M131.014 79.0676C131.025 79.0607 131.029 79.0445 131.023 79.0334L130.652 78.4197C130.645 78.4086 130.629 78.4048 130.618 78.4117C130.607 78.4185 130.603 78.4347 130.61 78.4458L130.981 79.0595C130.987 79.0706 131.003 79.0744 131.014 79.0676Z" fill="#575756"/>
<path d="M130.491 78.942C130.498 78.9531 130.514 78.9569 130.525 78.9501L131.133 78.5714C131.144 78.5646 131.148 78.5484 131.142 78.5373C131.135 78.5262 131.119 78.5223 131.108 78.5292L130.499 78.9078C130.488 78.9147 130.484 78.9309 130.491 78.942Z" fill="#575756"/>
<path d="M135.194 80.333C135.474 80.4003 135.757 80.2247 135.825 79.9406C135.893 79.6566 135.721 79.372 135.441 79.3047C135.16 79.2374 134.878 79.413 134.81 79.6971C134.742 79.9811 134.914 80.2657 135.194 80.333Z" fill="#706F6F"/>
<path d="M135.516 80.1479C135.527 80.1411 135.531 80.1249 135.524 80.1138L135.154 79.5001C135.147 79.489 135.131 79.4851 135.12 79.492C135.109 79.4988 135.105 79.515 135.112 79.5261L135.482 80.1398C135.489 80.1509 135.505 80.1548 135.516 80.1479Z" fill="#575756"/>
<path d="M134.993 80.0223C134.999 80.0334 135.015 80.0372 135.026 80.0304L135.635 79.6517C135.646 79.6449 135.65 79.6287 135.643 79.6176C135.637 79.6065 135.621 79.6026 135.61 79.6095L135.001 79.9881C134.99 79.995 134.986 80.0112 134.993 80.0223Z" fill="#575756"/>
<path d="M136.477 92.6679L124.535 89.7928C122.292 91.4712 120.943 90.5296 120.67 88.9621L128.641 87.0363L135.58 88.7017C136.59 88.944 137.607 88.3115 137.852 87.2887L138.109 86.219C138.23 85.7157 138.141 85.2096 137.898 84.7995L141.815 83.8534C141.869 84.5337 141.817 85.2267 141.653 85.9116L139.848 93.4313C139.478 94.9737 137.337 95.7927 136.475 92.6693L136.477 92.6679Z" fill="#EB7600"/>
</g>
<path d="M38.7477 79.3094L20 87.4196" stroke="url(#paint1_linear_1439_13190)" stroke-width="13" stroke-linecap="round" stroke-linejoin="round"/>
<g clip-path="url(#clip1_1439_13190)">
<path d="M6.12838 40.3859C6.06485 40.2509 5.8743 40.2361 5.78497 40.3574C3.83892 43.0249 2.72171 46.1198 3.33091 49.1144C3.84956 51.6649 4.96745 53.9119 6.46511 55.6865L11.8902 52.6417L6.12838 40.3859Z" fill="#706F6F"/>
<path d="M6.44739 55.7865L6.4068 55.7373C4.84706 53.8908 3.758 51.6062 3.25482 49.1303C2.54078 45.6151 4.20372 42.3949 5.72395 40.3113C5.78207 40.2313 5.87795 40.1882 5.9778 40.1978C6.0761 40.2077 6.15769 40.2654 6.1987 40.3519L11.9919 52.6736L6.44858 55.7846L6.44739 55.7865ZM5.92087 40.3539C5.8915 40.3606 5.86615 40.3778 5.84876 40.4013C4.34712 42.4595 2.70421 45.6394 3.40703 49.0986C3.90113 51.5279 4.96409 53.7696 6.48476 55.5877L11.7915 52.609L6.05773 40.4184C6.03924 40.3804 6.00432 40.3559 5.96094 40.3512C5.94751 40.3494 5.93324 40.3511 5.91933 40.3542L5.92087 40.3539Z" fill="#706F6F"/>
<path d="M13.6265 36.9921C13.489 37.0237 13.3521 37.0583 13.2279 37.0917C13.1544 37.1118 13.1182 37.1949 13.1518 37.2636L13.3268 37.6218C13.3268 37.6218 13.3296 37.6341 13.3345 37.6411L17.8897 45.9518C18.0168 46.2218 18.0749 46.3401 18.1209 46.5409C18.5984 48.6212 17.09 50.0046 16.3568 50.6037C13.2916 52.3087 5.40188 56.6053 4.14613 57.2886C4.06213 57.3339 4.04485 57.45 4.11394 57.5171C5.48633 58.8522 7.16749 59.8238 8.99672 60.3274C10.1934 60.6559 15.6146 84.687 17.7613 94.4089C18.2497 96.6216 20.4498 98.0106 22.6605 97.5032C24.8851 96.9926 26.259 94.7606 25.7118 92.5467C23.3247 82.8979 17.5733 59.1864 18.5406 58.4377C21.9209 55.815 26.094 53.3566 25.0483 48.8007C23.6269 42.6077 19.6311 35.614 13.6265 36.9921ZM22.0229 95.406C21.1834 95.5987 20.3454 95.0741 20.1529 94.2355C19.9604 93.3969 20.4859 92.5594 21.3253 92.3667C22.1648 92.174 23.0029 92.6986 23.1953 93.5372C23.3878 94.3758 22.8624 95.2134 22.0229 95.406V95.406Z" fill="#706F6F"/>
<path d="M22.6774 97.5774C21.5875 97.8275 20.4678 97.6358 19.5238 97.0396C18.5798 96.4434 17.927 95.5137 17.6867 94.4244C16.6909 89.9155 14.7505 81.2486 12.9477 73.862C11.968 69.8486 11.1429 66.6792 10.4949 64.4446C9.46545 60.888 9.09043 60.4311 8.97599 60.4004C7.14521 59.8972 5.44611 58.9183 4.05936 57.5702C4.00914 57.5216 3.9851 57.4523 3.99531 57.3833C4.00515 57.3128 4.04673 57.2528 4.10895 57.2191C5.61634 56.3984 13.2804 52.2251 16.3126 50.5391C17.8111 49.3107 18.378 48.0085 18.0448 46.5567C18.0022 46.3714 17.9483 46.257 17.8293 46.0079L17.8174 45.9846L13.2645 37.6767C13.2585 37.6651 13.2575 37.6604 13.2561 37.6543L13.0811 37.2961C13.0541 37.2422 13.0545 37.1803 13.0779 37.1261C13.1028 37.0717 13.149 37.0318 13.2058 37.0171C13.3285 36.9841 13.4684 36.9487 13.6076 36.9168C16.3439 36.2887 18.9408 37.3575 21.1131 40.008C22.8716 42.1535 24.3333 45.3524 25.1205 48.7825C26.0602 52.8766 22.848 55.2884 19.7408 57.6192C19.3577 57.9071 18.9618 58.2028 18.5848 58.4958C18.4934 58.5656 18.3517 59.1183 18.9908 62.7108C19.3927 64.9727 20.0489 68.1435 20.9409 72.1364C22.5846 79.4895 24.6807 88.0687 25.7837 92.5269C26.0535 93.6177 25.8779 94.7456 25.2886 95.7018C24.6996 96.6597 23.7716 97.3246 22.6755 97.5762L22.6774 97.5774ZM20.7925 72.1704C18.1325 60.2692 18.2061 58.5973 18.4921 58.3756C18.8707 58.0823 19.2678 57.7847 19.6509 57.4968C22.7175 55.1948 25.8895 52.8134 24.9721 48.8165C24.1898 45.4081 22.7404 42.234 20.9954 40.1049C18.8621 37.504 16.3196 36.452 13.6435 37.0662C13.5059 37.0978 13.369 37.1325 13.248 37.1652C13.231 37.1691 13.2226 37.1823 13.2194 37.1896C13.2162 37.1968 13.2113 37.211 13.2202 37.2284L13.3951 37.5866C13.3951 37.5866 13.4014 37.5998 13.4032 37.6075L17.9558 45.9139L17.9687 45.9418C18.0884 46.1939 18.1483 46.32 18.1947 46.5223C18.5375 48.0157 17.9346 49.4092 16.4045 50.6627L16.3932 50.6701C13.3656 52.3551 5.68985 56.5343 4.18247 57.355C4.16379 57.3658 4.15152 57.3832 4.1484 57.4051C4.14492 57.4254 4.15297 57.4463 4.16769 57.4608C5.53557 58.7905 7.21222 59.7567 9.01697 60.2528C9.22018 60.3086 9.8386 60.4788 13.0977 73.8276C14.9005 81.2142 16.8412 89.8826 17.8374 94.393C18.0684 95.4423 18.6969 96.3369 19.6067 96.9117C20.5165 97.4864 21.5952 97.6697 22.6434 97.4291C23.6916 97.1885 24.5922 96.5461 25.16 95.6241C25.7279 94.702 25.897 93.6162 25.6367 92.5672C24.5333 88.1074 22.4358 79.5286 20.7932 72.1735L20.7925 72.1704ZM22.0414 95.4798C21.1617 95.6817 20.2803 95.1313 20.0783 94.251C19.8762 93.3707 20.4279 92.4914 21.3091 92.2891C22.1903 92.0869 23.0702 92.6376 23.2722 93.5179C23.4743 94.3982 22.9226 95.2776 22.0414 95.4798ZM21.3438 92.4405C20.5461 92.6236 20.0472 93.4209 20.2298 94.2162C20.4123 95.0116 21.2105 95.5112 22.0067 95.3285C22.8028 95.1457 23.3033 94.3481 23.1207 93.5527C22.9382 92.7573 22.14 92.2577 21.3438 92.4405V92.4405Z" fill="#706F6F"/>
<path d="M14.0051 60.5238C12.9941 60.7559 12.3602 61.7663 12.592 62.7763L18.3216 87.7398C18.5534 88.7498 19.5645 89.3826 20.5755 89.1506C21.5866 88.9185 22.2205 87.9081 21.9886 86.8981L16.259 61.9347C16.0272 60.9246 15.0162 60.2918 14.0051 60.5238V60.5238Z" fill="#878787"/>
<path d="M20.5856 89.1939C19.5514 89.4313 18.5175 88.7842 18.2804 87.751L12.5505 62.786C12.3133 61.7528 12.9615 60.7196 13.9957 60.4823C15.03 60.2449 16.0638 60.892 16.3009 61.9252L22.0305 86.8886C22.2677 87.9218 21.6195 88.955 20.5853 89.1924L20.5856 89.1939ZM14.0149 60.5656C13.027 60.7924 12.4059 61.7803 12.6327 62.7687L18.3623 87.7322C18.5888 88.7191 19.5774 89.3392 20.5668 89.1121C21.5562 88.885 22.1758 87.8974 21.949 86.909L16.219 61.944C15.9925 60.9571 15.0039 60.337 14.0145 60.5641L14.0149 60.5656Z" fill="#878787"/>
</g>
<defs>
<linearGradient id="paint0_linear_1439_13190" x1="102.939" y1="80.957" x2="128.761" y2="91.8876" gradientUnits="userSpaceOnUse">
<stop stop-color="#FFFBE8"/>
<stop offset="1" stop-color="#FFF2BD"/>
</linearGradient>
<linearGradient id="paint1_linear_1439_13190" x1="39.8087" y1="78.957" x2="13.9868" y2="89.8876" gradientUnits="userSpaceOnUse">
<stop stop-color="#FFFBE8"/>
<stop offset="1" stop-color="#FFF2BD"/>
</linearGradient>
<clipPath id="clip0_1439_13190">
<rect width="93" height="20" fill="white" transform="matrix(-0.233348 0.972393 0.972393 0.233348 141.701 0)"/>
</clipPath>
<clipPath id="clip1_1439_13190">
<rect width="22.5298" height="61.1522" fill="white" transform="translate(0 40.04) rotate(-12.9266)"/>
</clipPath>
</defs>
</svg>
